<?xml version="1.0" encoding="utf-8" standalone="no"?>
<!DOCTYPE svg PUBLIC "-//W3C//DTD SVG 1.1//EN"
  "http://www.w3.org/Graphics/SVG/1.1/DTD/svg11.dtd">
<svg xmlns:xlink="http://www.w3.org/1999/xlink" width="720pt" height="288pt" viewBox="0 0 720 288" xmlns="http://www.w3.org/2000/svg" version="1.1">
 <metadata>
  <rdf:RDF xmlns:dc="http://purl.org/dc/elements/1.1/" xmlns:cc="http://creativecommons.org/ns#" xmlns:rdf="http://www.w3.org/1999/02/22-rdf-syntax-ns#">
   <cc:Work>
    <dc:type rdf:resource="http://purl.org/dc/dcmitype/StillImage"/>
    <dc:date>2024-02-15T08:13:57.358781</dc:date>
    <dc:format>image/svg+xml</dc:format>
    <dc:creator>
     <cc:Agent>
      <dc:title>Matplotlib v3.8.0, https://matplotlib.org/</dc:title>
     </cc:Agent>
    </dc:creator>
   </cc:Work>
  </rdf:RDF>
 </metadata>
 <defs>
  <style type="text/css">*{stroke-linejoin: round; stroke-linecap: butt}</style>
 </defs>
 <g id="figure_1">
  <g id="patch_1">
   <path d="M 0 288 
L 720 288 
L 720 0 
L 0 0 
z
" style="fill: #ffffff"/>
  </g>
  <g id="axes_1">
   <g id="patch_2">
    <path d="M 79.2 235.8 
L 685.8 235.8 
L 685.8 9 
L 79.2 9 
z
" style="fill: #ffffff"/>
   </g>
   <g id="matplotlib.axis_1">
    <g id="xtick_1">
     <g id="line2d_1">
      <defs>
       <path id="m52685c7cc8" d="M 0 0 
L 0 3.5 
" style="stroke: #000000; stroke-width: 0.8"/>
      </defs>
      <g>
       <use xlink:href="#m52685c7cc8" x="79.2" y="235.8" style="stroke: #000000; stroke-width: 0.8"/>
      </g>
     </g>
     <g id="text_1">
      <text style="font: 10px 'Segoe UI', sans-serif; text-anchor: middle" x="79.2" y="250.203125" transform="rotate(-0 79.2 250.203125)">0</text>
     </g>
    </g>
    <g id="xtick_2">
     <g id="line2d_2">
      <g>
       <use xlink:href="#m52685c7cc8" x="154.647761" y="235.8" style="stroke: #000000; stroke-width: 0.8"/>
      </g>
     </g>
     <g id="text_2">
      <text style="font: 10px 'Segoe UI', sans-serif; text-anchor: middle" x="154.647761" y="250.203125" transform="rotate(-0 154.647761 250.203125)">2.5</text>
     </g>
    </g>
    <g id="xtick_3">
     <g id="line2d_3">
      <g>
       <use xlink:href="#m52685c7cc8" x="230.095522" y="235.8" style="stroke: #000000; stroke-width: 0.8"/>
      </g>
     </g>
     <g id="text_3">
      <text style="font: 10px 'Segoe UI', sans-serif; text-anchor: middle" x="230.095522" y="250.203125" transform="rotate(-0 230.095522 250.203125)">5</text>
     </g>
    </g>
    <g id="xtick_4">
     <g id="line2d_4">
      <g>
       <use xlink:href="#m52685c7cc8" x="305.543284" y="235.8" style="stroke: #000000; stroke-width: 0.8"/>
      </g>
     </g>
     <g id="text_4">
      <text style="font: 10px 'Segoe UI', sans-serif; text-anchor: middle" x="305.543284" y="250.203125" transform="rotate(-0 305.543284 250.203125)">7.5</text>
     </g>
    </g>
    <g id="xtick_5">
     <g id="line2d_5">
      <g>
       <use xlink:href="#m52685c7cc8" x="380.991045" y="235.8" style="stroke: #000000; stroke-width: 0.8"/>
      </g>
     </g>
     <g id="text_5">
      <text style="font: 10px 'Segoe UI', sans-serif; text-anchor: middle" x="380.991045" y="250.203125" transform="rotate(-0 380.991045 250.203125)">10</text>
     </g>
    </g>
    <g id="xtick_6">
     <g id="line2d_6">
      <g>
       <use xlink:href="#m52685c7cc8" x="456.438806" y="235.8" style="stroke: #000000; stroke-width: 0.8"/>
      </g>
     </g>
     <g id="text_6">
      <text style="font: 10px 'Segoe UI', sans-serif; text-anchor: middle" x="456.438806" y="250.203125" transform="rotate(-0 456.438806 250.203125)">12.5</text>
     </g>
    </g>
    <g id="xtick_7">
     <g id="line2d_7">
      <g>
       <use xlink:href="#m52685c7cc8" x="531.886567" y="235.8" style="stroke: #000000; stroke-width: 0.8"/>
      </g>
     </g>
     <g id="text_7">
      <text style="font: 10px 'Segoe UI', sans-serif; text-anchor: middle" x="531.886567" y="250.203125" transform="rotate(-0 531.886567 250.203125)">15</text>
     </g>
    </g>
    <g id="xtick_8">
     <g id="line2d_8">
      <g>
       <use xlink:href="#m52685c7cc8" x="607.334328" y="235.8" style="stroke: #000000; stroke-width: 0.8"/>
      </g>
     </g>
     <g id="text_8">
      <text style="font: 10px 'Segoe UI', sans-serif; text-anchor: middle" x="607.334328" y="250.203125" transform="rotate(-0 607.334328 250.203125)">17.5</text>
     </g>
    </g>
    <g id="xtick_9">
     <g id="line2d_9">
      <g>
       <use xlink:href="#m52685c7cc8" x="682.78209" y="235.8" style="stroke: #000000; stroke-width: 0.8"/>
      </g>
     </g>
     <g id="text_9">
      <text style="font: 10px 'Segoe UI', sans-serif; text-anchor: middle" x="682.78209" y="250.203125" transform="rotate(-0 682.78209 250.203125)">20</text>
     </g>
    </g>
   </g>
   <g id="matplotlib.axis_2">
    <g id="ytick_1">
     <g id="line2d_10">
      <defs>
       <path id="md648be022d" d="M 0 0 
L -3.5 0 
" style="stroke: #000000; stroke-width: 0.8"/>
      </defs>
      <g>
       <use xlink:href="#md648be022d" x="79.2" y="65.7" style="stroke: #000000; stroke-width: 0.8"/>
      </g>
     </g>
     <g id="text_10">
      <text style="font: 10px 'Segoe UI', sans-serif; text-anchor: end" x="72.2" y="69.401562" transform="rotate(-0 72.2 69.401562)">hEOG</text>
     </g>
    </g>
    <g id="ytick_2">
     <g id="line2d_11">
      <g>
       <use xlink:href="#md648be022d" x="79.2" y="179.1" style="stroke: #000000; stroke-width: 0.8"/>
      </g>
     </g>
     <g id="text_11">
      <text style="font: 10px 'Segoe UI', sans-serif; text-anchor: end" x="72.2" y="182.801562" transform="rotate(-0 72.2 182.801562)">vEOG</text>
     </g>
    </g>
   </g>
   <g id="PolyCollection_1">
    <defs>
     <path id="m040e7e0f7e" d="M 104.773592 -52.2 
L 104.17001 -52.2 
L 104.17001 -279 
L 104.773592 -279 
L 104.773592 -279 
L 104.773592 -52.2 
z
" style="stroke: #8c564b; stroke-opacity: 0.3"/>
    </defs>
    <g clip-path="url(#p57aa35680f)">
     <use xlink:href="#m040e7e0f7e" x="0" y="288" style="fill: #8c564b; fill-opacity: 0.3; stroke: #8c564b; stroke-opacity: 0.3"/>
    </g>
   </g>
   <g id="patch_3">
    <path d="M 79.2 235.8 
L 79.2 9 
" style="fill: none; stroke: #000000; stroke-width: 0.8; stroke-linejoin: miter; stroke-linecap: square"/>
   </g>
   <g id="patch_4">
    <path d="M 685.8 235.8 
L 685.8 9 
" style="fill: none; stroke: #000000; stroke-width: 0.8; stroke-linejoin: miter; stroke-linecap: square"/>
   </g>
   <g id="patch_5">
    <path d="M 79.2 235.8 
L 685.8 235.8 
" style="fill: none; stroke: #000000; stroke-width: 0.8; stroke-linejoin: miter; stroke-linecap: square"/>
   </g>
   <g id="patch_6">
    <path d="M 79.2 9 
L 685.8 9 
" style="fill: none; stroke: #000000; stroke-width: 0.8; stroke-linejoin: miter; stroke-linecap: square"/>
   </g>
   <g id="text_12">
    <text style="fill: #8c564b; font: 10px 'Segoe UI', sans-serif; text-anchor: middle" x="104.471801" y="0" transform="rotate(-0 104.471801 0)">up</text>
   </g>
   <g id="PolyCollection_2">
    <defs>
     <path id="mc414ebd455" d="M 170.944478 -52.2 
L 170.340896 -52.2 
L 170.340896 -279 
L 170.944478 -279 
L 170.944478 -279 
L 170.944478 -52.2 
z
" style="stroke: #d62728; stroke-opacity: 0.3"/>
    </defs>
    <g clip-path="url(#p57aa35680f)">
     <use xlink:href="#mc414ebd455" x="0" y="288" style="fill: #d62728; fill-opacity: 0.3; stroke: #d62728; stroke-opacity: 0.3"/>
    </g>
   </g>
   <g id="text_13">
    <text style="fill: #d62728; font: 10px 'Segoe UI', sans-serif; text-anchor: middle" x="170.642687" y="0" transform="rotate(-0 170.642687 0)">BAD boundary</text>
   </g>
   <g id="text_14">
    <text style="fill: #d62728; font: 10px 'Segoe UI', sans-serif; text-anchor: middle" x="170.642687" y="0" transform="rotate(-0 170.642687 0)">EDGE boundary</text>
   </g>
   <g id="text_15">
    <text style="fill: #1f77b4; font: 10px 'Segoe UI', sans-serif; text-anchor: middle" x="182.557397" y="0" transform="rotate(-0 182.557397 0)">down</text>
   </g>
   <g id="text_16">
    <text style="fill: #d62728; font: 10px 'Segoe UI', sans-serif; text-anchor: middle" x="261.783582" y="0" transform="rotate(-0 261.783582 0)">BAD boundary</text>
   </g>
   <g id="text_17">
    <text style="fill: #d62728; font: 10px 'Segoe UI', sans-serif; text-anchor: middle" x="261.783582" y="0" transform="rotate(-0 261.783582 0)">EDGE boundary</text>
   </g>
   <g id="text_18">
    <text style="fill: #ff7f0e; font: 10px 'Segoe UI', sans-serif; text-anchor: middle" x="285.346371" y="0" transform="rotate(-0 285.346371 0)">left</text>
   </g>
   <g id="text_19">
    <text style="fill: #d62728; font: 10px 'Segoe UI', sans-serif; text-anchor: middle" x="352.924478" y="0" transform="rotate(-0 352.924478 0)">BAD boundary</text>
   </g>
   <g id="text_20">
    <text style="fill: #d62728; font: 10px 'Segoe UI', sans-serif; text-anchor: middle" x="352.924478" y="0" transform="rotate(-0 352.924478 0)">EDGE boundary</text>
   </g>
   <g id="text_21">
    <text style="fill: #2ca02c; font: 10px 'Segoe UI', sans-serif; text-anchor: middle" x="358.477312" y="0" transform="rotate(-0 358.477312 0)">right</text>
   </g>
   <g id="text_22">
    <text style="fill: #d62728; font: 10px 'Segoe UI', sans-serif; text-anchor: middle" x="444.065373" y="0" transform="rotate(-0 444.065373 0)">BAD boundary</text>
   </g>
   <g id="text_23">
    <text style="fill: #d62728; font: 10px 'Segoe UI', sans-serif; text-anchor: middle" x="444.065373" y="0" transform="rotate(-0 444.065373 0)">EDGE boundary</text>
   </g>
   <g id="text_24">
    <text style="fill: #e377c2; font: 10px 'Segoe UI', sans-serif; text-anchor: middle" x="461.884806" y="0" transform="rotate(-0 461.884806 0)">weak</text>
   </g>
   <g id="text_25">
    <text style="fill: #d62728; font: 10px 'Segoe UI', sans-serif; text-anchor: middle" x="565.385373" y="0" transform="rotate(-0 565.385373 0)">BAD boundary</text>
   </g>
   <g id="text_26">
    <text style="fill: #d62728; font: 10px 'Segoe UI', sans-serif; text-anchor: middle" x="565.385373" y="0" transform="rotate(-0 565.385373 0)">EDGE boundary</text>
   </g>
   <g id="text_27">
    <text style="fill: #9467bd; font: 10px 'Segoe UI', sans-serif; text-anchor: middle" x="590.062917" y="0" transform="rotate(-0 590.062917 0)">strong</text>
   </g>
   <g id="PolyCollection_3">
    <g clip-path="url(#p57aa35680f)">
     <use xlink:href="#mc414ebd455" x="0" y="288" style="fill: #d62728; fill-opacity: 0.3; stroke: #d62728; stroke-opacity: 0.3"/>
    </g>
   </g>
   <g id="PolyCollection_4">
    <defs>
     <path id="m9fc6113841" d="M 182.859188 -52.2 
L 182.255606 -52.2 
L 182.255606 -279 
L 182.859188 -279 
L 182.859188 -279 
L 182.859188 -52.2 
z
" style="stroke: #1f77b4; stroke-opacity: 0.3"/>
    </defs>
    <g clip-path="url(#p57aa35680f)">
     <use xlink:href="#m9fc6113841" x="0" y="288" style="fill: #1f77b4; fill-opacity: 0.3; stroke: #1f77b4; stroke-opacity: 0.3"/>
    </g>
   </g>
   <g id="PolyCollection_5">
    <defs>
     <path id="m0b28649eff" d="M 262.085373 -52.2 
L 261.481791 -52.2 
L 261.481791 -279 
L 262.085373 -279 
L 262.085373 -279 
L 262.085373 -52.2 
z
" style="stroke: #d62728; stroke-opacity: 0.3"/>
    </defs>
    <g clip-path="url(#p57aa35680f)">
     <use xlink:href="#m0b28649eff" x="0" y="288" style="fill: #d62728; fill-opacity: 0.3; stroke: #d62728; stroke-opacity: 0.3"/>
    </g>
   </g>
   <g id="PolyCollection_6">
    <g clip-path="url(#p57aa35680f)">
     <use xlink:href="#m0b28649eff" x="0" y="288" style="fill: #d62728; fill-opacity: 0.3; stroke: #d62728; stroke-opacity: 0.3"/>
    </g>
   </g>
   <g id="PolyCollection_7">
    <defs>
     <path id="m7cb8fe9592" d="M 285.648162 -52.2 
L 285.04458 -52.2 
L 285.04458 -279 
L 285.648162 -279 
L 285.648162 -279 
L 285.648162 -52.2 
z
" style="stroke: #ff7f0e; stroke-opacity: 0.3"/>
    </defs>
    <g clip-path="url(#p57aa35680f)">
     <use xlink:href="#m7cb8fe9592" x="0" y="288" style="fill: #ff7f0e; fill-opacity: 0.3; stroke: #ff7f0e; stroke-opacity: 0.3"/>
    </g>
   </g>
   <g id="PolyCollection_8">
    <defs>
     <path id="mc0e69ab837" d="M 353.226269 -52.2 
L 352.622687 -52.2 
L 352.622687 -279 
L 353.226269 -279 
L 353.226269 -279 
L 353.226269 -52.2 
z
" style="stroke: #d62728; stroke-opacity: 0.3"/>
    </defs>
    <g clip-path="url(#p57aa35680f)">
     <use xlink:href="#mc0e69ab837" x="0" y="288" style="fill: #d62728; fill-opacity: 0.3; stroke: #d62728; stroke-opacity: 0.3"/>
    </g>
   </g>
   <g id="PolyCollection_9">
    <g clip-path="url(#p57aa35680f)">
     <use xlink:href="#mc0e69ab837" x="0" y="288" style="fill: #d62728; fill-opacity: 0.3; stroke: #d62728; stroke-opacity: 0.3"/>
    </g>
   </g>
   <g id="PolyCollection_10">
    <defs>
     <path id="mc6f97773e1" d="M 358.779103 -52.2 
L 358.175521 -52.2 
L 358.175521 -279 
L 358.779103 -279 
L 358.779103 -279 
L 358.779103 -52.2 
z
" style="stroke: #2ca02c; stroke-opacity: 0.3"/>
    </defs>
    <g clip-path="url(#p57aa35680f)">
     <use xlink:href="#mc6f97773e1" x="0" y="288" style="fill: #2ca02c; fill-opacity: 0.3; stroke: #2ca02c; stroke-opacity: 0.3"/>
    </g>
   </g>
   <g id="PolyCollection_11">
    <defs>
     <path id="mada2e9184f" d="M 444.367164 -52.2 
L 443.763582 -52.2 
L 443.763582 -279 
L 444.367164 -279 
L 444.367164 -279 
L 444.367164 -52.2 
z
" style="stroke: #d62728; stroke-opacity: 0.3"/>
    </defs>
    <g clip-path="url(#p57aa35680f)">
     <use xlink:href="#mada2e9184f" x="0" y="288" style="fill: #d62728; fill-opacity: 0.3; stroke: #d62728; stroke-opacity: 0.3"/>
    </g>
   </g>
   <g id="PolyCollection_12">
    <g clip-path="url(#p57aa35680f)">
     <use xlink:href="#mada2e9184f" x="0" y="288" style="fill: #d62728; fill-opacity: 0.3; stroke: #d62728; stroke-opacity: 0.3"/>
    </g>
   </g>
   <g id="PolyCollection_13">
    <defs>
     <path id="m09647b4b41" d="M 462.186597 -52.2 
L 461.583015 -52.2 
L 461.583015 -279 
L 462.186597 -279 
L 462.186597 -279 
L 462.186597 -52.2 
z
" style="stroke: #e377c2; stroke-opacity: 0.3"/>
    </defs>
    <g clip-path="url(#p57aa35680f)">
     <use xlink:href="#m09647b4b41" x="0" y="288" style="fill: #e377c2; fill-opacity: 0.3; stroke: #e377c2; stroke-opacity: 0.3"/>
    </g>
   </g>
   <g id="PolyCollection_14">
    <defs>
     <path id="mdff3f27daf" d="M 565.687164 -52.2 
L 565.083582 -52.2 
L 565.083582 -279 
L 565.687164 -279 
L 565.687164 -279 
L 565.687164 -52.2 
z
" style="stroke: #d62728; stroke-opacity: 0.3"/>
    </defs>
    <g clip-path="url(#p57aa35680f)">
     <use xlink:href="#mdff3f27daf" x="0" y="288" style="fill: #d62728; fill-opacity: 0.3; stroke: #d62728; stroke-opacity: 0.3"/>
    </g>
   </g>
   <g id="PolyCollection_15">
    <g clip-path="url(#p57aa35680f)">
     <use xlink:href="#mdff3f27daf" x="0" y="288" style="fill: #d62728; fill-opacity: 0.3; stroke: #d62728; stroke-opacity: 0.3"/>
    </g>
   </g>
   <g id="PolyCollection_16">
    <defs>
     <path id="m5699ec83e0" d="M 590.364708 -52.2 
L 589.761126 -52.2 
L 589.761126 -279 
L 590.364708 -279 
L 590.364708 -279 
L 590.364708 -52.2 
z
" style="stroke: #9467bd; stroke-opacity: 0.3"/>
    </defs>
    <g clip-path="url(#p57aa35680f)">
     <use xlink:href="#m5699ec83e0" x="0" y="288" style="fill: #9467bd; fill-opacity: 0.3; stroke: #9467bd; stroke-opacity: 0.3"/>
    </g>
   </g>
   <g id="line2d_12">
    <path d="M 79.2 70.534972 
L 79.803582 70.747618 
L 81.010746 70.601467 
L 81.614328 70.509531 
L 82.821493 70.747951 
L 83.425075 70.62599 
L 84.028657 70.711455 
L 84.632239 70.918026 
L 85.235821 70.653619 
L 87.046567 70.573429 
L 87.650149 70.375489 
L 89.460896 70.357442 
L 90.064478 71.248586 
L 90.66806 71.845725 
L 91.875224 72.461941 
L 93.082388 72.140473 
L 94.289552 70.011604 
L 94.893134 69.46658 
L 95.496716 69.19959 
L 96.100299 68.207482 
L 96.703881 67.794023 
L 98.514627 67.73226 
L 99.118209 67.488112 
L 99.721791 67.594235 
L 100.928955 67.374772 
L 101.532537 67.409262 
L 102.136119 67.315563 
L 103.343284 67.304783 
L 103.946866 67.203 
L 104.550448 67.246521 
L 105.15403 67.159129 
L 105.757612 67.313613 
L 106.964776 67.261012 
L 107.568358 67.115324 
L 109.379104 67.175795 
L 109.982687 67.04043 
L 110.586269 67.175582 
L 113.000597 67.078924 
L 118.432836 67.046066 
L 119.036418 66.943536 
L 120.847164 66.944941 
L 123.865075 66.854455 
L 125.072239 66.8969 
L 127.486567 66.734545 
L 130.504478 66.617101 
L 131.10806 66.455502 
L 131.711642 66.623952 
L 132.315224 66.537318 
L 134.729552 66.660376 
L 135.936716 66.517591 
L 140.161791 66.762423 
L 141.368955 66.576138 
L 142.576119 66.649286 
L 143.179701 66.258109 
L 145.59403 66.282439 
L 148.008358 69.149899 
L 148.61194 69.416573 
L 149.819104 69.511696 
L 150.422687 69.222067 
L 151.026269 69.337992 
L 151.629851 69.093167 
L 152.837015 69.255794 
L 153.440597 69.074111 
L 154.044179 69.200083 
L 155.854925 69.065146 
L 157.665672 69.02506 
L 158.269254 68.99306 
L 158.872836 69.122525 
L 160.683582 68.849187 
L 161.287164 67.935474 
L 161.890746 67.387742 
L 162.494328 67.511319 
L 163.09791 67.333799 
L 163.701493 67.58551 
L 164.305075 67.314352 
L 164.908657 67.335141 
L 165.512239 67.231828 
L 166.115821 67.389529 
L 167.322985 67.319507 
L 169.133731 67.163317 
L 169.737313 67.262194 
L 170.340896 67.073842 
L 172.755224 67.110964 
L 173.358806 67.159865 
L 173.962388 67.063311 
L 174.56597 67.108439 
L 175.773134 67.04471 
L 177.583881 67.22034 
L 178.187463 67.058778 
L 184.223284 67.121788 
L 186.03403 66.882237 
L 186.637612 66.878834 
L 187.241194 66.750246 
L 187.844776 66.90648 
L 188.448358 66.801248 
L 189.655522 66.330093 
L 190.862687 66.352028 
L 192.069851 66.264775 
L 192.673433 66.129162 
L 193.880597 66.356116 
L 194.484179 66.219484 
L 195.087761 66.342633 
L 197.50209 65.782729 
L 198.105672 65.875072 
L 198.709254 65.848595 
L 199.312836 65.94156 
L 199.916418 65.880225 
L 200.52 65.9597 
L 201.123582 66.17577 
L 201.727164 66.022108 
L 202.330746 65.625464 
L 203.53791 65.783674 
L 204.745075 65.870328 
L 205.952239 65.866335 
L 207.159403 65.766964 
L 207.762985 65.938995 
L 208.366567 65.812882 
L 209.573731 65.83532 
L 210.177313 65.688747 
L 211.384478 65.832374 
L 211.98806 65.598095 
L 213.798806 65.725883 
L 214.402388 65.817144 
L 215.609552 65.73673 
L 222.248955 65.800927 
L 224.663284 65.735014 
L 225.870448 65.959646 
L 227.077612 65.706641 
L 227.681194 65.908646 
L 228.284776 65.836858 
L 229.49194 66.094259 
L 230.699104 66.048906 
L 231.302687 66.07698 
L 231.906269 65.942855 
L 232.509851 66.041281 
L 233.717015 66.604602 
L 234.320597 66.655827 
L 234.924179 66.526947 
L 236.131343 66.608963 
L 236.734925 66.714656 
L 237.338507 66.965868 
L 237.94209 67.08571 
L 239.149254 66.974349 
L 239.752836 66.809342 
L 240.96 66.926037 
L 242.167164 67.041048 
L 242.770746 67.068211 
L 243.374328 66.77441 
L 244.581493 67.147339 
L 247.599403 67.136282 
L 248.202985 67.239374 
L 249.410149 67.160186 
L 250.617313 66.821627 
L 251.220896 67.051755 
L 251.824478 67.088112 
L 252.42806 66.817592 
L 253.031642 66.838701 
L 253.635224 66.995369 
L 257.256716 66.853635 
L 259.067463 67.027419 
L 260.274627 66.709396 
L 260.878209 66.728949 
L 261.481791 68.915756 
L 262.085373 68.988015 
L 262.688955 68.784782 
L 264.499701 68.866975 
L 265.103284 68.798086 
L 265.706866 68.851689 
L 268.724776 68.582432 
L 272.346269 68.839787 
L 272.949851 68.752594 
L 273.553433 69.742149 
L 275.364179 78.910357 
L 276.571343 83.016889 
L 277.778507 85.44041 
L 278.985672 87.174306 
L 280.192836 88.448096 
L 280.796418 88.794794 
L 281.4 88.665846 
L 282.003582 88.998068 
L 285.021493 89.44985 
L 286.228657 89.340721 
L 287.435821 89.482238 
L 289.850149 89.439105 
L 291.057313 89.571698 
L 292.86806 89.845916 
L 295.282388 89.498244 
L 296.489552 89.51447 
L 297.093134 89.401719 
L 298.300299 89.412874 
L 300.111045 89.469952 
L 301.318209 89.263641 
L 301.921791 89.371605 
L 302.525373 89.241659 
L 304.939701 89.238904 
L 305.543284 89.409375 
L 306.750448 89.216775 
L 307.35403 89.40765 
L 307.957612 89.246563 
L 309.164776 89.311266 
L 309.768358 89.353173 
L 310.37194 89.208664 
L 311.579104 89.431963 
L 312.786269 89.18035 
L 314.597015 89.057808 
L 315.200597 89.047428 
L 315.804179 89.151133 
L 317.011343 89.103896 
L 317.614925 89.230569 
L 318.218507 89.162155 
L 318.82209 88.893647 
L 320.029254 88.998916 
L 320.632836 88.906985 
L 321.84 89.110947 
L 322.443582 88.840183 
L 323.047164 88.969381 
L 324.254328 88.89643 
L 324.85791 88.942375 
L 325.461493 88.79092 
L 326.065075 88.77871 
L 326.668657 88.351842 
L 327.272239 85.807315 
L 328.479403 77.456459 
L 329.686567 68.869013 
L 330.290149 65.635526 
L 330.893731 63.451018 
L 331.497313 62.431594 
L 332.100896 62.625066 
L 332.704478 63.515569 
L 333.30806 63.927199 
L 333.911642 64.165367 
L 335.118806 64.247259 
L 335.722388 64.095441 
L 340.551045 64.326931 
L 341.154627 64.532303 
L 341.758209 64.452921 
L 342.361791 64.56608 
L 343.568955 64.564505 
L 344.172537 64.359667 
L 344.776119 64.43775 
L 347.190448 63.965355 
L 348.397612 63.983606 
L 352.622687 64.107182 
L 353.226269 64.250577 
L 356.244179 64.235915 
L 356.847761 64.35269 
L 357.451343 64.175391 
L 358.054925 64.285458 
L 358.658507 64.103634 
L 360.469254 64.338028 
L 361.072836 64.072538 
L 361.676418 64.254849 
L 362.28 64.052027 
L 362.883582 64.418129 
L 363.487164 64.00813 
L 364.090746 64.398681 
L 364.694328 63.652884 
L 365.29791 65.074679 
L 365.901493 59.58759 
L 366.505075 52.211099 
L 367.108657 51.177292 
L 367.712239 48.862385 
L 368.315821 47.946517 
L 368.919403 46.485889 
L 369.522985 46.106688 
L 370.126567 45.400893 
L 370.730149 45.318463 
L 371.333731 44.667635 
L 371.937313 44.853529 
L 372.540896 44.644065 
L 373.144478 44.263533 
L 373.74806 44.125046 
L 374.351642 44.148761 
L 374.955224 43.865316 
L 375.558806 43.977472 
L 376.162388 43.846306 
L 376.76597 44.022422 
L 377.973134 43.8846 
L 378.576716 43.758704 
L 379.180299 44.136442 
L 379.783881 43.944283 
L 380.387463 43.914196 
L 380.991045 43.748859 
L 381.594627 43.875922 
L 382.801791 43.467612 
L 384.008955 43.556934 
L 384.612537 43.650438 
L 385.216119 43.511542 
L 385.819701 43.561762 
L 387.026866 43.467778 
L 387.630448 43.672585 
L 388.837612 43.390045 
L 389.441194 43.606435 
L 390.044776 43.650492 
L 390.648358 43.296246 
L 391.25194 43.547284 
L 391.855522 43.584879 
L 393.062687 43.360297 
L 393.666269 43.529034 
L 395.477015 43.460056 
L 396.080597 43.511965 
L 396.684179 43.329149 
L 397.287761 43.306372 
L 397.891343 43.558062 
L 400.909254 43.46078 
L 401.512836 43.5492 
L 402.116418 43.311366 
L 403.323582 43.388918 
L 403.927164 43.298892 
L 405.73791 43.533346 
L 406.341493 43.287401 
L 406.945075 43.278932 
L 407.548657 43.061654 
L 408.152239 43.467374 
L 409.962985 43.301119 
L 410.566567 43.464895 
L 411.773731 43.22145 
L 412.980896 43.630191 
L 413.584478 43.272875 
L 414.18806 43.260889 
L 414.791642 43.370116 
L 415.998806 43.334027 
L 416.602388 44.297359 
L 417.20597 45.957644 
L 419.620299 54.389909 
L 421.431045 61.922682 
L 422.638209 65.362632 
L 423.241791 65.528616 
L 423.845373 65.269563 
L 425.052537 65.241052 
L 425.656119 65.015366 
L 432.899104 64.788515 
L 433.502687 64.924973 
L 434.709851 64.834857 
L 436.520597 64.799168 
L 437.124179 64.866887 
L 438.331343 64.82071 
L 438.934925 64.89482 
L 439.538507 64.753073 
L 441.349254 64.985403 
L 441.952836 64.835714 
L 443.16 64.756447 
L 443.763582 64.065752 
L 444.367164 64.232787 
L 449.799403 64.625735 
L 450.402985 64.546318 
L 451.006567 64.940898 
L 451.610149 64.754244 
L 452.817313 65.032647 
L 458.249552 65.47651 
L 460.060299 63.762308 
L 460.663881 63.728673 
L 463.078209 64.569701 
L 465.492537 64.706631 
L 466.096119 64.966815 
L 466.699701 64.761484 
L 467.303284 64.219677 
L 468.510448 63.657688 
L 469.717612 64.101326 
L 470.321194 64.235215 
L 470.924776 64.489346 
L 471.528358 64.604491 
L 472.13194 64.396851 
L 472.735522 64.365933 
L 473.339104 64.483618 
L 475.149851 64.376329 
L 475.753433 64.289525 
L 476.357015 64.475171 
L 477.564179 64.150778 
L 478.167761 63.81585 
L 478.771343 63.677686 
L 479.374925 63.736179 
L 480.58209 63.56498 
L 482.392836 63.743636 
L 483.6 63.740313 
L 486.014328 63.492651 
L 486.61791 63.188157 
L 487.825075 63.07244 
L 488.428657 62.868672 
L 489.635821 62.973172 
L 493.860896 62.400295 
L 494.464478 62.251253 
L 495.06806 62.315724 
L 496.275224 61.615061 
L 499.293134 62.961788 
L 499.896716 63.306832 
L 500.500299 63.319617 
L 501.103881 63.532197 
L 502.914627 63.744713 
L 503.518209 63.623227 
L 504.725373 63.729414 
L 505.328955 63.682529 
L 505.932537 63.277316 
L 506.536119 63.161298 
L 507.139701 63.216383 
L 507.743284 63.133234 
L 508.346866 63.455485 
L 508.950448 63.627586 
L 509.55403 64.0467 
L 510.157612 63.993797 
L 511.364776 64.133408 
L 512.57194 64.64901 
L 513.779104 64.896345 
L 514.382687 64.913153 
L 514.986269 64.579347 
L 515.589851 63.731512 
L 516.193433 63.222022 
L 516.797015 63.012561 
L 517.400597 63.351067 
L 518.004179 63.45786 
L 518.607761 63.905214 
L 520.418507 64.100011 
L 521.625672 63.884202 
L 522.229254 64.048181 
L 523.436418 63.872443 
L 524.04 63.363994 
L 524.643582 63.392991 
L 525.247164 63.294036 
L 525.850746 63.43002 
L 526.454328 63.80602 
L 527.661493 64.183648 
L 528.868657 64.126253 
L 530.679403 64.229012 
L 531.886567 64.388384 
L 532.490149 63.844083 
L 533.093731 63.619106 
L 534.300896 63.881617 
L 534.904478 63.835081 
L 536.715224 64.259017 
L 537.922388 64.219217 
L 539.129552 64.513856 
L 539.733134 64.358206 
L 540.940299 63.743503 
L 541.543881 63.658991 
L 543.354627 63.96723 
L 544.561791 64.463895 
L 545.165373 64.344108 
L 546.976119 64.566421 
L 548.183284 64.385164 
L 548.786866 64.577332 
L 549.390448 64.621141 
L 549.99403 64.475027 
L 551.201194 63.690317 
L 551.804776 63.61262 
L 553.01194 63.689551 
L 554.822687 64.415524 
L 560.254925 64.145504 
L 561.46209 64.352788 
L 563.876418 64.453384 
L 565.083582 64.139738 
L 565.687164 64.155303 
L 566.290746 64.289159 
L 566.894328 64.164916 
L 567.49791 64.200724 
L 568.101493 64.085689 
L 569.308657 64.214707 
L 569.912239 64.221267 
L 570.515821 63.993503 
L 571.119403 63.995872 
L 571.722985 63.865086 
L 572.930149 63.928009 
L 573.533731 64.022821 
L 574.137313 63.809753 
L 574.740896 63.898147 
L 575.344478 63.754032 
L 575.94806 64.041598 
L 576.551642 63.903192 
L 577.155224 64.389525 
L 577.758806 63.904863 
L 578.362388 65.356629 
L 578.96597 66.465052 
L 579.569552 71.699912 
L 580.173134 74.42055 
L 580.776716 73.755226 
L 581.380299 72.040434 
L 581.983881 69.330306 
L 582.587463 68.518915 
L 583.191045 67.299283 
L 584.398209 65.633777 
L 585.001791 65.510837 
L 585.605373 65.080785 
L 586.208955 65.104867 
L 586.812537 64.959835 
L 587.416119 65.174003 
L 588.019701 65.099447 
L 588.623284 65.165819 
L 589.226866 64.640911 
L 590.43403 64.247569 
L 591.037612 63.85648 
L 591.641194 63.899287 
L 592.244776 64.223105 
L 592.848358 64.256456 
L 593.45194 64.445827 
L 594.055522 64.497379 
L 594.659104 65.0197 
L 595.262687 64.752989 
L 595.866269 65.097789 
L 596.469851 66.730244 
L 597.073433 67.322319 
L 597.677015 67.127971 
L 598.884179 65.395017 
L 599.487761 64.967071 
L 600.091343 65.320557 
L 600.694925 65.136702 
L 601.298507 65.171046 
L 601.90209 65.033546 
L 602.505672 65.505727 
L 603.109254 65.374186 
L 603.712836 65.368989 
L 604.316418 66.668924 
L 604.92 66.543902 
L 605.523582 66.094322 
L 606.127164 64.968944 
L 606.730746 64.669107 
L 607.334328 64.703497 
L 607.93791 64.993286 
L 609.748657 64.945899 
L 610.352239 65.231383 
L 610.955821 64.909066 
L 611.559403 64.779197 
L 612.162985 64.937593 
L 612.766567 65.307105 
L 613.370149 64.362109 
L 613.973731 63.940866 
L 614.577313 63.919292 
L 615.180896 64.38593 
L 616.38806 64.647412 
L 618.802388 64.62653 
L 619.40597 64.770513 
L 620.009552 64.468207 
L 620.613134 64.31057 
L 621.216716 63.538121 
L 622.423881 63.14168 
L 623.631045 64.254164 
L 624.838209 64.374134 
L 625.441791 64.637388 
L 626.648955 64.55217 
L 627.252537 63.935561 
L 627.856119 64.029985 
L 628.459701 63.951003 
L 629.666866 63.430997 
L 630.270448 63.801244 
L 631.477612 64.860287 
L 632.081194 64.757578 
L 633.288358 63.529158 
L 634.495522 63.917233 
L 635.099104 64.354414 
L 636.909851 64.498564 
L 637.513433 64.820917 
L 638.117015 64.601498 
L 638.720597 64.61102 
L 639.324179 66.249131 
L 639.927761 67.467612 
L 640.531343 70.695073 
L 641.134925 70.534216 
L 641.738507 68.606714 
L 642.945672 61.759696 
L 643.549254 60.835717 
L 644.756418 62.399339 
L 651.999403 63.472916 
L 652.602985 63.402448 
L 655.017313 63.63272 
L 655.620896 63.636645 
L 656.224478 63.790312 
L 656.82806 63.673913 
L 658.035224 63.815927 
L 658.638806 63.755013 
L 659.242388 64.499895 
L 659.84597 64.820384 
L 661.053134 64.755806 
L 662.260299 64.838939 
L 662.863881 64.965929 
L 663.467463 64.70099 
L 666.485373 64.957993 
L 667.692537 64.696605 
L 671.31403 64.314516 
L 671.917612 64.415936 
L 676.746269 63.942077 
L 677.349851 64.098552 
L 679.160597 63.807664 
L 680.367761 63.87284 
L 680.971343 63.972876 
L 682.178507 63.839405 
L 682.78209 63.821668 
L 683.385672 63.921462 
L 683.989254 63.790522 
L 684.592836 63.92857 
L 685.196418 63.765692 
L 685.8 63.841334 
L 685.8 63.841334 
" clip-path="url(#p57aa35680f)" style="fill: none; stroke: #000000; stroke-width: 0.5; stroke-linecap: square"/>
   </g>
   <g id="line2d_13">
    <path d="M 79.2 186.486913 
L 81.010746 187.338631 
L 83.425075 187.391089 
L 84.028657 187.49974 
L 84.632239 188.311265 
L 85.235821 188.733185 
L 85.839403 188.70012 
L 86.442985 188.954282 
L 87.650149 189.000144 
L 88.857313 188.975709 
L 89.460896 188.636259 
L 90.064478 182.923516 
L 90.66806 179.387439 
L 91.271642 177.441985 
L 91.875224 176.136922 
L 93.082388 174.688477 
L 93.68597 174.200488 
L 94.893134 174.030219 
L 95.496716 174.168589 
L 97.307463 174.060763 
L 97.911045 174.155441 
L 98.514627 174.072747 
L 99.118209 174.164965 
L 99.721791 173.925149 
L 100.325373 174.023051 
L 100.928955 173.914498 
L 103.343284 174.059753 
L 103.946866 173.902149 
L 106.361194 173.808382 
L 106.964776 174.04917 
L 107.568358 173.898727 
L 108.17194 174.024163 
L 108.775522 173.865886 
L 109.982687 173.901343 
L 110.586269 174.061101 
L 111.793433 173.835252 
L 113.000597 173.888351 
L 113.604179 173.816228 
L 114.207761 173.924079 
L 114.811343 173.841987 
L 115.414925 173.930976 
L 116.018507 173.803773 
L 116.62209 173.928419 
L 118.432836 173.630743 
L 119.036418 173.833206 
L 121.450746 173.606506 
L 122.054328 173.75938 
L 123.261493 173.647206 
L 123.865075 173.744142 
L 126.882985 173.482621 
L 127.486567 173.574054 
L 128.090149 173.452876 
L 128.693731 173.705944 
L 129.297313 173.555289 
L 134.729552 173.356937 
L 136.540299 173.383678 
L 137.747463 173.43747 
L 138.954627 173.153593 
L 139.558209 173.31013 
L 140.161791 173.239984 
L 140.765373 173.4423 
L 141.972537 173.271328 
L 142.576119 173.040188 
L 143.179701 171.348114 
L 144.386866 162.531524 
L 144.990448 161.118274 
L 145.59403 161.28723 
L 146.197612 162.467871 
L 146.801194 164.969481 
L 148.008358 173.56763 
L 148.61194 178.079763 
L 149.215522 181.715086 
L 149.819104 184.209185 
L 150.422687 185.843414 
L 151.026269 186.430426 
L 151.629851 186.541832 
L 153.440597 187.393978 
L 154.044179 187.56284 
L 154.647761 187.515588 
L 159.476418 188.102798 
L 160.683582 187.670348 
L 161.890746 184.511424 
L 163.701493 185.131655 
L 164.305075 184.968547 
L 164.908657 185.151122 
L 165.512239 185.074566 
L 166.115821 185.316916 
L 166.719403 185.260808 
L 167.926567 185.596521 
L 169.737313 185.722403 
L 170.340896 186.478668 
L 170.944478 186.491882 
L 171.54806 186.675298 
L 172.151642 186.552942 
L 172.755224 186.679459 
L 173.358806 186.536895 
L 173.962388 186.763192 
L 174.56597 186.815908 
L 175.773134 186.693222 
L 176.376716 186.800621 
L 176.980299 186.716836 
L 178.791045 186.917233 
L 179.998209 186.972541 
L 180.601791 186.752997 
L 181.205373 186.897077 
L 181.808955 186.844179 
L 182.412537 186.545482 
L 183.016119 186.516221 
L 183.619701 187.517381 
L 186.637612 195.110883 
L 187.241194 196.30149 
L 189.05194 198.899429 
L 190.259104 200.302409 
L 191.466269 200.956253 
L 192.673433 201.607166 
L 193.277015 201.912904 
L 194.484179 202.088783 
L 195.691343 201.870677 
L 196.294925 201.627652 
L 197.50209 201.482932 
L 198.105672 201.655016 
L 198.709254 201.435686 
L 199.916418 201.617092 
L 201.123582 201.520467 
L 202.330746 201.472472 
L 202.934328 201.635839 
L 204.141493 201.43449 
L 204.745075 201.54219 
L 205.348657 201.438572 
L 206.555821 201.459469 
L 209.573731 201.301977 
L 211.384478 201.371943 
L 211.98806 201.268489 
L 212.591642 201.441889 
L 213.195224 201.36523 
L 213.798806 201.403229 
L 214.402388 201.304708 
L 216.213134 201.441101 
L 216.816716 201.365408 
L 217.420299 201.512438 
L 218.627463 201.273655 
L 219.834627 201.369015 
L 220.438209 201.259623 
L 221.041791 201.307009 
L 222.248955 201.187953 
L 225.266866 201.358625 
L 225.870448 201.067281 
L 227.077612 201.251611 
L 228.888358 200.964069 
L 230.699104 200.875133 
L 231.906269 200.591107 
L 232.509851 198.073743 
L 234.320597 181.388935 
L 234.924179 178.049189 
L 235.527761 177.509104 
L 236.131343 178.371514 
L 237.338507 182.315139 
L 237.94209 183.444712 
L 238.545672 184.226096 
L 239.149254 184.735067 
L 241.563582 185.935205 
L 242.167164 185.962558 
L 242.770746 186.454484 
L 244.581493 186.785951 
L 245.185075 186.878063 
L 246.392239 186.780131 
L 249.410149 186.936049 
L 250.013731 187.395611 
L 250.617313 188.37562 
L 251.220896 188.43304 
L 252.42806 188.331914 
L 253.635224 188.458186 
L 254.238806 188.772769 
L 254.842388 188.504756 
L 259.671045 188.547274 
L 260.274627 188.436308 
L 260.878209 188.529503 
L 261.481791 187.941111 
L 263.292537 187.925024 
L 263.896119 187.941902 
L 264.499701 187.809236 
L 265.706866 187.937651 
L 266.310448 187.836018 
L 267.517612 188.016061 
L 269.328358 188.199656 
L 269.93194 188.049662 
L 270.535522 188.186583 
L 272.346269 187.946814 
L 272.949851 188.050189 
L 273.553433 187.769015 
L 274.760597 185.66126 
L 275.364179 185.20212 
L 275.967761 184.975507 
L 276.571343 185.206037 
L 277.174925 185.226206 
L 277.778507 185.448023 
L 278.38209 185.204024 
L 278.985672 185.185211 
L 279.589254 185.362061 
L 282.003582 185.5725 
L 283.210746 185.91415 
L 285.021493 185.995996 
L 285.625075 186.304227 
L 286.228657 186.439476 
L 286.832239 186.261788 
L 287.435821 186.635956 
L 289.246567 186.766384 
L 290.453731 186.902814 
L 291.057313 186.734595 
L 292.264478 186.852804 
L 292.86806 186.780844 
L 293.471642 187.012342 
L 294.075224 186.918081 
L 294.678806 187.028921 
L 303.732537 186.369434 
L 304.336119 186.439546 
L 304.939701 186.203115 
L 305.543284 186.238576 
L 306.146866 186.107404 
L 307.35403 186.159174 
L 307.957612 186.201657 
L 308.561194 186.045452 
L 310.37194 186.183129 
L 310.975522 185.952856 
L 312.182687 185.881739 
L 312.786269 186.13605 
L 314.597015 185.905513 
L 315.804179 185.814911 
L 316.407761 185.688742 
L 317.614925 185.747998 
L 320.632836 185.611382 
L 321.236418 185.334157 
L 321.84 185.622061 
L 322.443582 185.445329 
L 323.047164 185.543977 
L 323.650746 185.304827 
L 324.85791 185.434282 
L 325.461493 185.23804 
L 326.668657 185.395065 
L 327.272239 184.374088 
L 327.875821 180.701644 
L 328.479403 175.239249 
L 329.082985 171.669452 
L 329.686567 171.12834 
L 330.290149 173.434175 
L 331.497313 179.004444 
L 332.100896 181.456634 
L 333.30806 184.461015 
L 333.911642 185.252759 
L 335.722388 186.586696 
L 336.929552 187.113718 
L 337.533134 187.466461 
L 339.343881 187.714116 
L 340.551045 187.726091 
L 341.154627 187.9301 
L 342.965373 187.7406 
L 344.172537 187.947606 
L 344.776119 187.790611 
L 345.379701 187.914789 
L 345.983284 187.77482 
L 346.586866 187.993474 
L 347.190448 187.904766 
L 348.397612 187.971214 
L 349.604776 187.817487 
L 350.208358 187.918264 
L 352.019104 187.905647 
L 352.622687 187.329191 
L 355.037015 187.413004 
L 355.640597 187.261105 
L 356.244179 187.344841 
L 356.847761 187.145174 
L 357.451343 187.21871 
L 358.054925 187.08713 
L 359.865672 187.302643 
L 360.469254 187.162465 
L 362.28 187.265287 
L 362.883582 187.165112 
L 363.487164 187.458805 
L 365.901493 187.62941 
L 366.505075 187.437568 
L 367.712239 187.825635 
L 370.126567 188.030531 
L 370.730149 188.534019 
L 371.333731 188.678207 
L 371.937313 189.130695 
L 372.540896 189.272717 
L 373.144478 189.654796 
L 373.74806 190.30858 
L 374.351642 190.639481 
L 377.973134 190.974962 
L 384.612537 190.819428 
L 385.819701 190.850163 
L 387.630448 190.571166 
L 388.23403 190.677954 
L 389.441194 190.435762 
L 390.648358 190.35261 
L 391.25194 190.454657 
L 391.855522 190.226701 
L 393.062687 190.311828 
L 394.873433 190.15771 
L 395.477015 190.043613 
L 396.684179 190.042159 
L 397.891343 189.96754 
L 398.494925 189.961716 
L 399.098507 189.758896 
L 407.548657 189.444238 
L 410.566567 189.259116 
L 411.773731 189.311445 
L 412.377313 189.190312 
L 414.18806 189.35782 
L 414.791642 189.136526 
L 415.395224 189.15633 
L 415.998806 188.825097 
L 416.602388 187.858632 
L 417.809552 182.864792 
L 419.016716 177.470585 
L 419.620299 174.935987 
L 420.223881 173.720578 
L 420.827463 172.881812 
L 422.034627 174.765799 
L 422.638209 181.430922 
L 423.241791 186.173735 
L 423.845373 186.83498 
L 424.448955 187.800398 
L 425.052537 187.98584 
L 425.656119 188.498757 
L 426.259701 188.566902 
L 426.863284 189.030408 
L 427.466866 188.939995 
L 428.070448 189.274697 
L 428.67403 189.246675 
L 429.277612 189.440247 
L 431.088358 189.375107 
L 431.69194 189.504074 
L 432.295522 189.440066 
L 432.899104 189.617941 
L 433.502687 189.495146 
L 434.709851 189.54971 
L 436.520597 189.539365 
L 437.124179 188.978193 
L 437.727761 187.594828 
L 438.331343 186.797064 
L 438.934925 186.980745 
L 440.14209 186.964346 
L 442.556418 187.234719 
L 443.16 187.102593 
L 443.763582 186.836082 
L 445.574328 186.716631 
L 446.17791 186.773895 
L 446.781493 186.653301 
L 447.385075 186.648996 
L 448.592239 186.358489 
L 449.195821 185.243368 
L 449.799403 181.671724 
L 450.402985 175.469019 
L 451.006567 172.321822 
L 451.610149 172.443849 
L 452.213731 174.860216 
L 453.420896 180.879782 
L 454.024478 183.190407 
L 455.231642 185.820955 
L 455.835224 186.653992 
L 456.438806 187.265445 
L 457.042388 187.596308 
L 457.64597 187.655046 
L 458.249552 186.776715 
L 458.853134 183.924562 
L 459.456716 178.961638 
L 460.060299 176.09776 
L 460.663881 176.729606 
L 462.474627 183.250707 
L 463.681791 186.000471 
L 464.285373 186.752756 
L 465.492537 187.254643 
L 466.096119 186.721592 
L 466.699701 184.873312 
L 467.906866 175.117995 
L 468.510448 175.278739 
L 469.11403 177.247732 
L 470.321194 181.698856 
L 470.924776 183.235914 
L 472.13194 185.529454 
L 472.735522 186.326953 
L 473.942687 187.449751 
L 474.546269 187.8428 
L 475.753433 187.710744 
L 476.357015 187.114349 
L 476.960597 185.077608 
L 478.167761 175.371048 
L 478.771343 175.611502 
L 481.185672 183.706332 
L 481.789254 184.880324 
L 482.392836 185.772406 
L 483.6 186.5974 
L 484.203582 186.808675 
L 484.807164 186.476337 
L 485.410746 185.25115 
L 486.014328 181.77069 
L 486.61791 175.780853 
L 487.221493 173.89967 
L 487.825075 175.367578 
L 489.635821 182.265576 
L 490.239403 183.796329 
L 491.446567 185.663096 
L 492.653731 187.112352 
L 493.257313 187.704757 
L 494.464478 187.815809 
L 495.06806 187.086418 
L 495.671642 185.221008 
L 496.878806 175.468778 
L 497.482388 174.992134 
L 498.08597 176.563621 
L 499.293134 181.510328 
L 499.896716 183.390223 
L 500.500299 184.805465 
L 501.707463 186.622134 
L 502.914627 187.46359 
L 503.518209 187.650839 
L 504.121791 187.464101 
L 504.725373 186.40946 
L 505.328955 183.624291 
L 505.932537 178.075868 
L 506.536119 174.465601 
L 507.139701 175.242489 
L 508.950448 182.132157 
L 509.55403 183.924995 
L 510.157612 185.239697 
L 510.761194 186.180804 
L 511.968358 187.428498 
L 512.57194 187.698078 
L 513.175522 187.64011 
L 513.779104 186.999681 
L 514.382687 184.894974 
L 515.589851 175.227253 
L 516.193433 174.880823 
L 516.797015 176.469657 
L 517.400597 178.931937 
L 519.211343 183.677796 
L 519.814925 184.848061 
L 520.418507 185.519873 
L 521.02209 186.718332 
L 521.625672 186.82496 
L 522.229254 186.558324 
L 522.832836 185.523574 
L 523.436418 182.62142 
L 524.04 177.330607 
L 524.643582 174.366127 
L 525.247164 175.338633 
L 527.05791 181.910385 
L 528.265075 184.322829 
L 528.868657 185.019549 
L 529.472239 185.476436 
L 530.075821 185.623898 
L 530.679403 185.499778 
L 531.282985 184.52476 
L 531.886567 182.093083 
L 532.490149 177.348215 
L 533.093731 174.201485 
L 533.697313 175.121834 
L 535.50806 181.820605 
L 536.715224 184.533393 
L 537.922388 185.794989 
L 539.129552 186.097314 
L 539.733134 185.469196 
L 540.336716 183.256664 
L 540.940299 178.267992 
L 541.543881 174.233082 
L 542.147463 174.253081 
L 542.751045 176.215439 
L 543.958209 181.069089 
L 544.561791 182.847891 
L 545.768955 184.960541 
L 546.372537 185.678625 
L 548.183284 186.778897 
L 548.786866 186.566685 
L 549.390448 185.743004 
L 549.99403 183.536259 
L 551.201194 173.980533 
L 551.804776 173.180494 
L 552.408358 174.374369 
L 553.615522 178.905529 
L 554.822687 182.190753 
L 555.426269 183.344557 
L 556.633433 184.841816 
L 557.840597 185.705311 
L 558.444179 186.030495 
L 559.651343 186.149502 
L 562.669254 186.331747 
L 566.894328 186.109029 
L 567.49791 186.293978 
L 568.101493 186.187768 
L 568.705075 186.235514 
L 569.308657 186.133305 
L 569.912239 186.234753 
L 570.515821 186.163817 
L 571.119403 186.231987 
L 571.722985 186.070196 
L 572.326567 186.355914 
L 572.930149 186.25642 
L 573.533731 186.507608 
L 574.137313 186.230408 
L 574.740896 186.733473 
L 575.344478 186.333111 
L 575.94806 186.856219 
L 576.551642 185.946279 
L 577.155224 185.932378 
L 578.362388 165.587163 
L 579.569552 133.195872 
L 580.776716 96.359089 
L 581.983881 78.763856 
L 582.587463 79.394792 
L 583.191045 87.098395 
L 583.794627 98.732261 
L 584.398209 105.556495 
L 585.001791 110.536682 
L 587.416119 125.199919 
L 588.019701 127.487049 
L 588.623284 130.249709 
L 589.226866 127.11809 
L 589.830448 122.101435 
L 590.43403 121.134436 
L 591.641194 129.10698 
L 592.244776 135.984328 
L 593.45194 145.307007 
L 594.055522 147.482769 
L 594.659104 151.489862 
L 596.469851 131.512617 
L 597.073433 121.498004 
L 597.677015 122.468955 
L 598.280597 129.887853 
L 598.884179 141.182211 
L 600.091343 153.622504 
L 601.298507 160.564293 
L 601.90209 161.857945 
L 602.505672 162.75645 
L 603.109254 157.937039 
L 604.92 135.837287 
L 605.523582 135.252824 
L 606.127164 141.524989 
L 606.730746 150.6129 
L 607.334328 157.105542 
L 607.93791 161.182741 
L 608.541493 164.087908 
L 609.748657 167.681872 
L 610.352239 167.294322 
L 610.955821 164.142491 
L 611.559403 155.386229 
L 612.162985 149.338513 
L 612.766567 147.396516 
L 613.370149 148.27128 
L 613.973731 151.963712 
L 614.577313 157.288504 
L 615.180896 160.040161 
L 615.784478 163.510999 
L 616.991642 168.201591 
L 617.595224 170.401234 
L 618.198806 171.323133 
L 618.802388 172.03908 
L 619.40597 171.472818 
L 620.009552 169.64593 
L 621.216716 156.902389 
L 621.820299 156.459429 
L 622.423881 159.307368 
L 623.027463 164.324287 
L 623.631045 168.257469 
L 624.234627 171.184118 
L 624.838209 173.187386 
L 625.441791 173.939634 
L 626.045373 174.082618 
L 626.648955 170.416452 
L 627.252537 162.770727 
L 627.856119 158.782347 
L 628.459701 156.158819 
L 629.063284 155.527528 
L 629.666866 154.162809 
L 630.270448 152.435748 
L 630.87403 149.257991 
L 632.081194 136.205752 
L 632.684776 134.036277 
L 633.288358 138.533179 
L 634.495522 156.030551 
L 635.099104 161.608539 
L 636.306269 167.849009 
L 637.513433 170.928463 
L 638.117015 168.419968 
L 638.720597 159.577566 
L 639.324179 146.643802 
L 639.927761 124.472202 
L 641.134925 99.632285 
L 641.738507 90.505854 
L 642.34209 83.385091 
L 642.945672 79.77779 
L 643.549254 81.915547 
L 644.756418 102.906622 
L 645.36 108.556969 
L 646.567164 115.964739 
L 647.774328 122.388163 
L 649.585075 130.824453 
L 651.395821 138.223759 
L 653.810149 146.461512 
L 654.413731 147.982502 
L 655.620896 151.361839 
L 656.224478 152.860384 
L 656.82806 153.830376 
L 657.431642 155.612099 
L 658.035224 156.370609 
L 659.242388 159.113936 
L 659.84597 161.011058 
L 660.449552 161.551188 
L 662.260299 163.848436 
L 662.863881 164.372012 
L 663.467463 165.14743 
L 665.278209 166.779262 
L 665.881791 167.516547 
L 666.485373 167.75847 
L 667.692537 169.287473 
L 668.296119 169.696256 
L 668.899701 170.568799 
L 670.106866 170.807488 
L 670.710448 171.232721 
L 671.31403 171.328183 
L 671.917612 171.815687 
L 672.521194 171.700132 
L 673.124776 172.113596 
L 673.728358 172.27364 
L 674.935522 172.783231 
L 675.539104 172.920528 
L 676.142687 172.941627 
L 676.746269 173.200655 
L 677.953433 173.383154 
L 680.367761 174.173486 
L 680.971343 174.222911 
L 683.385672 175.045307 
L 685.196418 175.50923 
L 685.8 175.546504 
L 685.8 175.546504 
" clip-path="url(#p57aa35680f)" style="fill: none; stroke: #000000; stroke-width: 0.5; stroke-linecap: square"/>
   </g>
   <g id="text_28">
    <text style="fill: #aa3377; font: 5.79px 'Segoe UI', sans-serif; text-anchor: end" x="79.2" y="122.4" transform="rotate(-0 79.2 122.4)">3000.0 µV </text>
   </g>
   <g id="line2d_14">
    <path d="M 79.2 9 
L 79.2 122.4 
" clip-path="url(#p57aa35680f)" style="fill: none; stroke: #aa3377; stroke-width: 4; stroke-linecap: square"/>
   </g>
  </g>
  <g id="axes_2">
   <g id="patch_7">
    <path d="M 79.2 271.8 
L 685.8 271.8 
L 685.8 253.8 
L 79.2 253.8 
z
" style="fill: #ffffff"/>
   </g>
   <g id="patch_8">
    <path d="M 79.2 270.981818 
L 685.197018 270.981818 
L 685.197018 254.618182 
L 79.2 254.618182 
z
" style="fill: #404040; opacity: 0.3; stroke: #000000; stroke-width: 4; stroke-linejoin: miter"/>
   </g>
   <g id="matplotlib.axis_3">
    <g id="xtick_10">
     <g id="line2d_15">
      <g>
       <use xlink:href="#m52685c7cc8" x="79.2" y="271.8" style="stroke: #000000; stroke-width: 0.8"/>
      </g>
     </g>
     <g id="text_29">
      <text style="font: 10px 'Segoe UI', sans-serif; text-anchor: middle" x="79.2" y="286.203125" transform="rotate(-0 79.2 286.203125)">0</text>
     </g>
    </g>
    <g id="xtick_11">
     <g id="line2d_16">
      <g>
       <use xlink:href="#m52685c7cc8" x="154.572763" y="271.8" style="stroke: #000000; stroke-width: 0.8"/>
      </g>
     </g>
     <g id="text_30">
      <text style="font: 10px 'Segoe UI', sans-serif; text-anchor: middle" x="154.572763" y="286.203125" transform="rotate(-0 154.572763 286.203125)">2.5</text>
     </g>
    </g>
    <g id="xtick_12">
     <g id="line2d_17">
      <g>
       <use xlink:href="#m52685c7cc8" x="229.945527" y="271.8" style="stroke: #000000; stroke-width: 0.8"/>
      </g>
     </g>
     <g id="text_31">
      <text style="font: 10px 'Segoe UI', sans-serif; text-anchor: middle" x="229.945527" y="286.203125" transform="rotate(-0 229.945527 286.203125)">5</text>
     </g>
    </g>
    <g id="xtick_13">
     <g id="line2d_18">
      <g>
       <use xlink:href="#m52685c7cc8" x="305.31829" y="271.8" style="stroke: #000000; stroke-width: 0.8"/>
      </g>
     </g>
     <g id="text_32">
      <text style="font: 10px 'Segoe UI', sans-serif; text-anchor: middle" x="305.31829" y="286.203125" transform="rotate(-0 305.31829 286.203125)">7.5</text>
     </g>
    </g>
    <g id="xtick_14">
     <g id="line2d_19">
      <g>
       <use xlink:href="#m52685c7cc8" x="380.691054" y="271.8" style="stroke: #000000; stroke-width: 0.8"/>
      </g>
     </g>
     <g id="text_33">
      <text style="font: 10px 'Segoe UI', sans-serif; text-anchor: middle" x="380.691054" y="286.203125" transform="rotate(-0 380.691054 286.203125)">10</text>
     </g>
    </g>
    <g id="xtick_15">
     <g id="line2d_20">
      <g>
       <use xlink:href="#m52685c7cc8" x="456.063817" y="271.8" style="stroke: #000000; stroke-width: 0.8"/>
      </g>
     </g>
     <g id="text_34">
      <text style="font: 10px 'Segoe UI', sans-serif; text-anchor: middle" x="456.063817" y="286.203125" transform="rotate(-0 456.063817 286.203125)">12.5</text>
     </g>
    </g>
    <g id="xtick_16">
     <g id="line2d_21">
      <g>
       <use xlink:href="#m52685c7cc8" x="531.436581" y="271.8" style="stroke: #000000; stroke-width: 0.8"/>
      </g>
     </g>
     <g id="text_35">
      <text style="font: 10px 'Segoe UI', sans-serif; text-anchor: middle" x="531.436581" y="286.203125" transform="rotate(-0 531.436581 286.203125)">15</text>
     </g>
    </g>
    <g id="xtick_17">
     <g id="line2d_22">
      <g>
       <use xlink:href="#m52685c7cc8" x="606.809344" y="271.8" style="stroke: #000000; stroke-width: 0.8"/>
      </g>
     </g>
     <g id="text_36">
      <text style="font: 10px 'Segoe UI', sans-serif; text-anchor: middle" x="606.809344" y="286.203125" transform="rotate(-0 606.809344 286.203125)">17.5</text>
     </g>
    </g>
    <g id="xtick_18">
     <g id="line2d_23">
      <g>
       <use xlink:href="#m52685c7cc8" x="682.182107" y="271.8" style="stroke: #000000; stroke-width: 0.8"/>
      </g>
     </g>
     <g id="text_37">
      <text style="font: 10px 'Segoe UI', sans-serif; text-anchor: middle" x="682.182107" y="286.203125" transform="rotate(-0 682.182107 286.203125)">20</text>
     </g>
    </g>
    <g id="text_38">
     <text style="font: 10px 'Segoe UI', sans-serif; text-anchor: middle" x="382.5" y="299.90625" transform="rotate(-0 382.5 299.90625)">Time (s)</text>
    </g>
   </g>
   <g id="PolyCollection_17">
    <defs>
     <path id="m62c58f8e40" d="M 104.748171 -17.018182 
L 104.145189 -17.018182 
L 104.145189 -33.381818 
L 104.748171 -33.381818 
L 104.748171 -33.381818 
L 104.748171 -17.018182 
z
" style="stroke: #8c564b; stroke-opacity: 0.3"/>
    </defs>
    <g clip-path="url(#p00db6c816e)">
     <use xlink:href="#m62c58f8e40" x="0" y="288" style="fill: #8c564b; fill-opacity: 0.3; stroke: #8c564b; stroke-opacity: 0.3"/>
    </g>
   </g>
   <g id="patch_9">
    <path d="M 79.2 271.8 
L 79.2 253.8 
" style="fill: none; stroke: #000000; stroke-width: 0.8; stroke-linejoin: miter; stroke-linecap: square"/>
   </g>
   <g id="patch_10">
    <path d="M 685.8 271.8 
L 685.8 253.8 
" style="fill: none; stroke: #000000; stroke-width: 0.8; stroke-linejoin: miter; stroke-linecap: square"/>
   </g>
   <g id="patch_11">
    <path d="M 79.2 271.8 
L 685.8 271.8 
" style="fill: none; stroke: #000000; stroke-width: 0.8; stroke-linejoin: miter; stroke-linecap: square"/>
   </g>
   <g id="patch_12">
    <path d="M 79.2 253.8 
L 685.8 253.8 
" style="fill: none; stroke: #000000; stroke-width: 0.8; stroke-linejoin: miter; stroke-linecap: square"/>
   </g>
   <g id="PolyCollection_18">
    <defs>
     <path id="m8995886aa0" d="M 170.85328 -17.018182 
L 170.250298 -17.018182 
L 170.250298 -33.381818 
L 170.85328 -33.381818 
L 170.85328 -33.381818 
L 170.85328 -17.018182 
z
" style="stroke: #d62728; stroke-opacity: 0.3"/>
    </defs>
    <g clip-path="url(#p00db6c816e)">
     <use xlink:href="#m8995886aa0" x="0" y="288" style="fill: #d62728; fill-opacity: 0.3; stroke: #d62728; stroke-opacity: 0.3"/>
    </g>
   </g>
   <g id="PolyCollection_19">
    <g clip-path="url(#p00db6c816e)">
     <use xlink:href="#m8995886aa0" x="0" y="288" style="fill: #d62728; fill-opacity: 0.3; stroke: #d62728; stroke-opacity: 0.3"/>
    </g>
   </g>
   <g id="PolyCollection_20">
    <defs>
     <path id="m597c7ba3af" d="M 182.756147 -17.018182 
L 182.153165 -17.018182 
L 182.153165 -33.381818 
L 182.756147 -33.381818 
L 182.756147 -33.381818 
L 182.756147 -17.018182 
z
" style="stroke: #1f77b4; stroke-opacity: 0.3"/>
    </defs>
    <g clip-path="url(#p00db6c816e)">
     <use xlink:href="#m597c7ba3af" x="0" y="288" style="fill: #1f77b4; fill-opacity: 0.3; stroke: #1f77b4; stroke-opacity: 0.3"/>
    </g>
   </g>
   <g id="PolyCollection_21">
    <defs>
     <path id="me0d4e2ac0b" d="M 261.903579 -17.018182 
L 261.300596 -17.018182 
L 261.300596 -33.381818 
L 261.903579 -33.381818 
L 261.903579 -33.381818 
L 261.903579 -17.018182 
z
" style="stroke: #d62728; stroke-opacity: 0.3"/>
    </defs>
    <g clip-path="url(#p00db6c816e)">
     <use xlink:href="#me0d4e2ac0b" x="0" y="288" style="fill: #d62728; fill-opacity: 0.3; stroke: #d62728; stroke-opacity: 0.3"/>
    </g>
   </g>
   <g id="PolyCollection_22">
    <g clip-path="url(#p00db6c816e)">
     <use xlink:href="#me0d4e2ac0b" x="0" y="288" style="fill: #d62728; fill-opacity: 0.3; stroke: #d62728; stroke-opacity: 0.3"/>
    </g>
   </g>
   <g id="PolyCollection_23">
    <defs>
     <path id="m4f8bdd1e7d" d="M 285.442945 -17.018182 
L 284.839963 -17.018182 
L 284.839963 -33.381818 
L 285.442945 -33.381818 
L 285.442945 -33.381818 
L 285.442945 -17.018182 
z
" style="stroke: #ff7f0e; stroke-opacity: 0.3"/>
    </defs>
    <g clip-path="url(#p00db6c816e)">
     <use xlink:href="#m4f8bdd1e7d" x="0" y="288" style="fill: #ff7f0e; fill-opacity: 0.3; stroke: #ff7f0e; stroke-opacity: 0.3"/>
    </g>
   </g>
   <g id="PolyCollection_24">
    <defs>
     <path id="m48be5795d6" d="M 352.953877 -17.018182 
L 352.350895 -17.018182 
L 352.350895 -33.381818 
L 352.953877 -33.381818 
L 352.953877 -33.381818 
L 352.953877 -17.018182 
z
" style="stroke: #d62728; stroke-opacity: 0.3"/>
    </defs>
    <g clip-path="url(#p00db6c816e)">
     <use xlink:href="#m48be5795d6" x="0" y="288" style="fill: #d62728; fill-opacity: 0.3; stroke: #d62728; stroke-opacity: 0.3"/>
    </g>
   </g>
   <g id="PolyCollection_25">
    <g clip-path="url(#p00db6c816e)">
     <use xlink:href="#m48be5795d6" x="0" y="288" style="fill: #d62728; fill-opacity: 0.3; stroke: #d62728; stroke-opacity: 0.3"/>
    </g>
   </g>
   <g id="PolyCollection_26">
    <defs>
     <path id="me67fb6d225" d="M 358.501192 -17.018182 
L 357.898209 -17.018182 
L 357.898209 -33.381818 
L 358.501192 -33.381818 
L 358.501192 -33.381818 
L 358.501192 -17.018182 
z
" style="stroke: #2ca02c; stroke-opacity: 0.3"/>
    </defs>
    <g clip-path="url(#p00db6c816e)">
     <use xlink:href="#me67fb6d225" x="0" y="288" style="fill: #2ca02c; fill-opacity: 0.3; stroke: #2ca02c; stroke-opacity: 0.3"/>
    </g>
   </g>
   <g id="PolyCollection_27">
    <defs>
     <path id="m243739e771" d="M 444.004175 -17.018182 
L 443.401193 -17.018182 
L 443.401193 -33.381818 
L 444.004175 -33.381818 
L 444.004175 -33.381818 
L 444.004175 -17.018182 
z
" style="stroke: #d62728; stroke-opacity: 0.3"/>
    </defs>
    <g clip-path="url(#p00db6c816e)">
     <use xlink:href="#m243739e771" x="0" y="288" style="fill: #d62728; fill-opacity: 0.3; stroke: #d62728; stroke-opacity: 0.3"/>
    </g>
   </g>
   <g id="PolyCollection_28">
    <g clip-path="url(#p00db6c816e)">
     <use xlink:href="#m243739e771" x="0" y="288" style="fill: #d62728; fill-opacity: 0.3; stroke: #d62728; stroke-opacity: 0.3"/>
    </g>
   </g>
   <g id="PolyCollection_29">
    <defs>
     <path id="mab955c19a5" d="M 461.805895 -17.018182 
L 461.202913 -17.018182 
L 461.202913 -33.381818 
L 461.805895 -33.381818 
L 461.805895 -33.381818 
L 461.805895 -17.018182 
z
" style="stroke: #e377c2; stroke-opacity: 0.3"/>
    </defs>
    <g clip-path="url(#p00db6c816e)">
     <use xlink:href="#mab955c19a5" x="0" y="288" style="fill: #e377c2; fill-opacity: 0.3; stroke: #e377c2; stroke-opacity: 0.3"/>
    </g>
   </g>
   <g id="PolyCollection_30">
    <defs>
     <path id="m381db60bf3" d="M 565.203579 -17.018182 
L 564.600596 -17.018182 
L 564.600596 -33.381818 
L 565.203579 -33.381818 
L 565.203579 -33.381818 
L 565.203579 -17.018182 
z
" style="stroke: #d62728; stroke-opacity: 0.3"/>
    </defs>
    <g clip-path="url(#p00db6c816e)">
     <use xlink:href="#m381db60bf3" x="0" y="288" style="fill: #d62728; fill-opacity: 0.3; stroke: #d62728; stroke-opacity: 0.3"/>
    </g>
   </g>
   <g id="PolyCollection_31">
    <g clip-path="url(#p00db6c816e)">
     <use xlink:href="#m381db60bf3" x="0" y="288" style="fill: #d62728; fill-opacity: 0.3; stroke: #d62728; stroke-opacity: 0.3"/>
    </g>
   </g>
   <g id="PolyCollection_32">
    <defs>
     <path id="mf7ebb31ab2" d="M 589.856592 -17.018182 
L 589.25361 -17.018182 
L 589.25361 -33.381818 
L 589.856592 -33.381818 
L 589.856592 -33.381818 
L 589.856592 -17.018182 
z
" style="stroke: #9467bd; stroke-opacity: 0.3"/>
    </defs>
    <g clip-path="url(#p00db6c816e)">
     <use xlink:href="#mf7ebb31ab2" x="0" y="288" style="fill: #9467bd; fill-opacity: 0.3; stroke: #9467bd; stroke-opacity: 0.3"/>
    </g>
   </g>
  </g>
  <g id="axes_3">
   <g id="patch_13">
    <path d="M 693 9 
L 711 9 
L 711 122.4 
L 693 122.4 
z
" clip-path="url(#p57e55a2436)" style="stroke: #000000; stroke-linejoin: miter"/>
   </g>
   <g id="patch_14">
    <path d="M 693 122.4 
L 711 122.4 
L 711 235.8 
L 693 235.8 
z
" clip-path="url(#p57e55a2436)" style="stroke: #000000; stroke-linejoin: miter"/>
   </g>
   <g id="patch_15">
    <path d="M 693 9 
L 711 9 
L 711 235.8 
L 693 235.8 
z
" style="fill: #ffffff; opacity: 0.3; stroke: #000000; stroke-width: 4; stroke-linejoin: miter"/>
   </g>
  </g>
  <g id="axes_4">
   <g id="patch_16">
    <path d="M 36 271.8 
L 72 271.8 
L 72 253.8 
L 36 253.8 
z
" style="fill: #d9d9d9"/>
   </g>
   <g id="matplotlib.axis_4"/>
   <g id="matplotlib.axis_5"/>
   <g id="patch_17">
    <path d="M 36 271.8 
L 36 253.8 
" style="fill: none; stroke: #000000; stroke-width: 0.8; stroke-linejoin: miter; stroke-linecap: square"/>
   </g>
   <g id="patch_18">
    <path d="M 72 271.8 
L 72 253.8 
" style="fill: none; stroke: #000000; stroke-width: 0.8; stroke-linejoin: miter; stroke-linecap: square"/>
   </g>
   <g id="patch_19">
    <path d="M 36 271.8 
L 72 271.8 
" style="fill: none; stroke: #000000; stroke-width: 0.8; stroke-linejoin: miter; stroke-linecap: square"/>
   </g>
   <g id="patch_20">
    <path d="M 36 253.8 
L 72 253.8 
" style="fill: none; stroke: #000000; stroke-width: 0.8; stroke-linejoin: miter; stroke-linecap: square"/>
   </g>
   <g id="text_39">
    <text style="font: 10px 'Segoe UI', sans-serif; text-anchor: middle" x="54" y="265.351562" transform="rotate(-0 54 265.351562)">Help</text>
   </g>
  </g>
 </g>
 <defs>
  <clipPath id="p57aa35680f">
   <rect x="79.2" y="9" width="606.6" height="226.8"/>
  </clipPath>
  <clipPath id="p00db6c816e">
   <rect x="79.2" y="253.8" width="606.6" height="18"/>
  </clipPath>
  <clipPath id="p57e55a2436">
   <rect x="693" y="9" width="18" height="226.8"/>
  </clipPath>
 </defs>
</svg>
