<?xml version="1.0" encoding="utf-8" standalone="no"?>
<!DOCTYPE svg PUBLIC "-//W3C//DTD SVG 1.1//EN"
  "http://www.w3.org/Graphics/SVG/1.1/DTD/svg11.dtd">
<svg xmlns:xlink="http://www.w3.org/1999/xlink" width="720pt" height="144pt" viewBox="0 0 720 144" xmlns="http://www.w3.org/2000/svg" version="1.1">
 <metadata>
  <rdf:RDF xmlns:dc="http://purl.org/dc/elements/1.1/" xmlns:cc="http://creativecommons.org/ns#" xmlns:rdf="http://www.w3.org/1999/02/22-rdf-syntax-ns#">
   <cc:Work>
    <dc:type rdf:resource="http://purl.org/dc/dcmitype/StillImage"/>
    <dc:date>2024-02-15T08:13:59.027268</dc:date>
    <dc:format>image/svg+xml</dc:format>
    <dc:creator>
     <cc:Agent>
      <dc:title>Matplotlib v3.8.0, https://matplotlib.org/</dc:title>
     </cc:Agent>
    </dc:creator>
   </cc:Work>
  </rdf:RDF>
 </metadata>
 <defs>
  <style type="text/css">*{stroke-linejoin: round; stroke-linecap: butt}</style>
 </defs>
 <g id="figure_1">
  <g id="patch_1">
   <path d="M 0 144 
L 720 144 
L 720 0 
L 0 0 
z
" style="fill: #ffffff"/>
  </g>
  <g id="axes_1">
   <g id="patch_2">
    <path d="M 90 128.16 
L 648 128.16 
L 648 17.28 
L 90 17.28 
z
" style="fill: #ffffff"/>
   </g>
   <g id="matplotlib.axis_1">
    <g id="xtick_1">
     <g id="line2d_1">
      <defs>
       <path id="m704ced6f0c" d="M 0 0 
L 0 3.5 
" style="stroke: #000000; stroke-width: 0.8"/>
      </defs>
      <g>
       <use xlink:href="#m704ced6f0c" x="90" y="128.16" style="stroke: #000000; stroke-width: 0.8"/>
      </g>
     </g>
     <g id="text_1">
      <text style="font: 10px 'Segoe UI', sans-serif; text-anchor: middle" x="90" y="142.563125" transform="rotate(-0 90 142.563125)">0</text>
     </g>
    </g>
    <g id="xtick_2">
     <g id="line2d_2">
      <g>
       <use xlink:href="#m704ced6f0c" x="159.75" y="128.16" style="stroke: #000000; stroke-width: 0.8"/>
      </g>
     </g>
     <g id="text_2">
      <text style="font: 10px 'Segoe UI', sans-serif; text-anchor: middle" x="159.75" y="142.563125" transform="rotate(-0 159.75 142.563125)">5</text>
     </g>
    </g>
    <g id="xtick_3">
     <g id="line2d_3">
      <g>
       <use xlink:href="#m704ced6f0c" x="229.5" y="128.16" style="stroke: #000000; stroke-width: 0.8"/>
      </g>
     </g>
     <g id="text_3">
      <text style="font: 10px 'Segoe UI', sans-serif; text-anchor: middle" x="229.5" y="142.563125" transform="rotate(-0 229.5 142.563125)">10</text>
     </g>
    </g>
    <g id="xtick_4">
     <g id="line2d_4">
      <g>
       <use xlink:href="#m704ced6f0c" x="299.25" y="128.16" style="stroke: #000000; stroke-width: 0.8"/>
      </g>
     </g>
     <g id="text_4">
      <text style="font: 10px 'Segoe UI', sans-serif; text-anchor: middle" x="299.25" y="142.563125" transform="rotate(-0 299.25 142.563125)">15</text>
     </g>
    </g>
    <g id="xtick_5">
     <g id="line2d_5">
      <g>
       <use xlink:href="#m704ced6f0c" x="369" y="128.16" style="stroke: #000000; stroke-width: 0.8"/>
      </g>
     </g>
     <g id="text_5">
      <text style="font: 10px 'Segoe UI', sans-serif; text-anchor: middle" x="369" y="142.563125" transform="rotate(-0 369 142.563125)">20</text>
     </g>
    </g>
    <g id="xtick_6">
     <g id="line2d_6">
      <g>
       <use xlink:href="#m704ced6f0c" x="438.75" y="128.16" style="stroke: #000000; stroke-width: 0.8"/>
      </g>
     </g>
     <g id="text_6">
      <text style="font: 10px 'Segoe UI', sans-serif; text-anchor: middle" x="438.75" y="142.563125" transform="rotate(-0 438.75 142.563125)">25</text>
     </g>
    </g>
    <g id="xtick_7">
     <g id="line2d_7">
      <g>
       <use xlink:href="#m704ced6f0c" x="508.5" y="128.16" style="stroke: #000000; stroke-width: 0.8"/>
      </g>
     </g>
     <g id="text_7">
      <text style="font: 10px 'Segoe UI', sans-serif; text-anchor: middle" x="508.5" y="142.563125" transform="rotate(-0 508.5 142.563125)">30</text>
     </g>
    </g>
    <g id="xtick_8">
     <g id="line2d_8">
      <g>
       <use xlink:href="#m704ced6f0c" x="578.25" y="128.16" style="stroke: #000000; stroke-width: 0.8"/>
      </g>
     </g>
     <g id="text_8">
      <text style="font: 10px 'Segoe UI', sans-serif; text-anchor: middle" x="578.25" y="142.563125" transform="rotate(-0 578.25 142.563125)">35</text>
     </g>
    </g>
    <g id="xtick_9">
     <g id="line2d_9">
      <g>
       <use xlink:href="#m704ced6f0c" x="648" y="128.16" style="stroke: #000000; stroke-width: 0.8"/>
      </g>
     </g>
     <g id="text_9">
      <text style="font: 10px 'Segoe UI', sans-serif; text-anchor: middle" x="648" y="142.563125" transform="rotate(-0 648 142.563125)">40</text>
     </g>
    </g>
    <g id="text_10">
     <text style="font: 10px 'Segoe UI', sans-serif; text-anchor: middle" x="369" y="156.26625" transform="rotate(-0 369 156.26625)">Time (s)</text>
    </g>
   </g>
   <g id="matplotlib.axis_2">
    <g id="ytick_1">
     <g id="line2d_10">
      <defs>
       <path id="mee8b7e87d5" d="M 0 0 
L -3.5 0 
" style="stroke: #000000; stroke-width: 0.8"/>
      </defs>
      <g>
       <use xlink:href="#mee8b7e87d5" x="90" y="128.16" style="stroke: #000000; stroke-width: 0.8"/>
      </g>
     </g>
     <g id="text_11">
      <text style="font: 10px 'Segoe UI', sans-serif; text-anchor: end" x="83" y="131.861562" transform="rotate(-0 83 131.861562)">−2</text>
     </g>
    </g>
    <g id="ytick_2">
     <g id="line2d_11">
      <g>
       <use xlink:href="#mee8b7e87d5" x="90" y="100.44" style="stroke: #000000; stroke-width: 0.8"/>
      </g>
     </g>
     <g id="text_12">
      <text style="font: 10px 'Segoe UI', sans-serif; text-anchor: end" x="83" y="104.141562" transform="rotate(-0 83 104.141562)">−1</text>
     </g>
    </g>
    <g id="ytick_3">
     <g id="line2d_12">
      <g>
       <use xlink:href="#mee8b7e87d5" x="90" y="72.72" style="stroke: #000000; stroke-width: 0.8"/>
      </g>
     </g>
     <g id="text_13">
      <text style="font: 10px 'Segoe UI', sans-serif; text-anchor: end" x="83" y="76.421562" transform="rotate(-0 83 76.421562)">0</text>
     </g>
    </g>
    <g id="ytick_4">
     <g id="line2d_13">
      <g>
       <use xlink:href="#mee8b7e87d5" x="90" y="45" style="stroke: #000000; stroke-width: 0.8"/>
      </g>
     </g>
     <g id="text_14">
      <text style="font: 10px 'Segoe UI', sans-serif; text-anchor: end" x="83" y="48.701562" transform="rotate(-0 83 48.701562)">1</text>
     </g>
    </g>
    <g id="ytick_5">
     <g id="line2d_14">
      <g>
       <use xlink:href="#mee8b7e87d5" x="90" y="17.28" style="stroke: #000000; stroke-width: 0.8"/>
      </g>
     </g>
     <g id="text_15">
      <text style="font: 10px 'Segoe UI', sans-serif; text-anchor: end" x="83" y="20.981562" transform="rotate(-0 83 20.981562)">2</text>
     </g>
    </g>
   </g>
   <g id="LineCollection_1">
    <path d="M 138.825 145 
L 138.825 -1 
" clip-path="url(#p5022d1bb5c)" style="fill: none; stroke-dasharray: 2.96,1.28; stroke-dashoffset: 0; stroke: #000000; stroke-width: 0.8"/>
    <path d="M 194.625 145 
L 194.625 -1 
" clip-path="url(#p5022d1bb5c)" style="fill: none; stroke-dasharray: 2.96,1.28; stroke-dashoffset: 0; stroke: #000000; stroke-width: 0.8"/>
    <path d="M 243.45 145 
L 243.45 -1 
" clip-path="url(#p5022d1bb5c)" style="fill: none; stroke-dasharray: 2.96,1.28; stroke-dashoffset: 0; stroke: #000000; stroke-width: 0.8"/>
    <path d="M 299.25 145 
L 299.25 -1 
" clip-path="url(#p5022d1bb5c)" style="fill: none; stroke-dasharray: 2.96,1.28; stroke-dashoffset: 0; stroke: #000000; stroke-width: 0.8"/>
    <path d="M 369 145 
L 369 -1 
" clip-path="url(#p5022d1bb5c)" style="fill: none; stroke-dasharray: 2.96,1.28; stroke-dashoffset: 0; stroke: #000000; stroke-width: 0.8"/>
    <path d="M 438.75 145 
L 438.75 -1 
" clip-path="url(#p5022d1bb5c)" style="fill: none; stroke-dasharray: 2.96,1.28; stroke-dashoffset: 0; stroke: #000000; stroke-width: 0.8"/>
    <path d="M 508.5 145 
L 508.5 -1 
" clip-path="url(#p5022d1bb5c)" style="fill: none; stroke-dasharray: 2.96,1.28; stroke-dashoffset: 0; stroke: #000000; stroke-width: 0.8"/>
    <path d="M 578.25 145 
L 578.25 -1 
" clip-path="url(#p5022d1bb5c)" style="fill: none; stroke-dasharray: 2.96,1.28; stroke-dashoffset: 0; stroke: #000000; stroke-width: 0.8"/>
   </g>
   <g id="line2d_15">
    <path d="M 90 72.72 
L 90.279 75.234985 
L 90.558 71.913074 
L 90.837 75.87116 
L 91.116 71.749688 
L 91.395 73.116596 
L 91.674 65.64653 
L 91.953 72.031469 
L 92.232 58.68797 
L 92.511 102.61392 
L 92.594341 145 
M 95.006826 145 
L 95.301 65.799149 
L 95.58 75.768319 
L 95.859 72.203785 
L 96.138 76.349728 
L 96.417 73.054046 
L 96.696 75.031233 
L 96.975 73.635968 
L 97.254 75.817842 
L 97.533 73.844435 
L 97.812 74.829333 
L 98.091 73.678643 
L 98.37 74.417413 
L 98.928 74.047256 
L 99.207 73.148125 
L 99.486 77.353286 
L 100.044 74.812084 
L 100.323 74.698315 
L 100.602 75.87372 
L 100.881 73.110068 
L 101.439 75.516646 
L 101.718 74.218316 
L 102.276 75.649787 
L 102.555 75.126552 
L 102.834 75.239804 
L 103.392 75.660559 
L 103.671 75.600928 
L 104.229 75.166368 
L 104.787 74.995487 
L 105.066 74.017705 
L 105.624 73.110347 
L 105.903 73.837431 
L 106.182 74.019472 
L 106.461 75.500626 
L 106.74 75.216616 
L 107.019 79.644525 
L 107.298 75.504869 
L 107.577 79.376865 
L 108.007906 -1 
M 108.696061 -1 
L 108.972 16.358851 
L 109.251 23.192456 
L 109.53 58.279022 
L 109.809 75.533469 
L 110.088 75.747027 
L 110.367 75.262278 
L 110.646 76.296085 
L 110.925 75.163109 
L 111.204 76.707839 
L 111.483 75.438798 
L 111.762 76.518184 
L 112.041 75.4395 
L 112.32 75.666531 
L 112.599 75.03984 
L 112.878 75.406685 
L 113.157 72.944747 
L 113.436 73.47412 
L 113.715 73.585988 
L 113.994 74.874802 
L 114.273 75.247075 
L 114.552 78.784943 
L 115.11 77.635 
L 115.389 65.646714 
L 115.623188 -1 
M 116.489664 -1 
L 116.505 0.799246 
L 116.784 17.962673 
L 117.063 16.683954 
L 117.342 29.787412 
L 117.621 66.681359 
L 117.9 72.152679 
L 118.179 72.142467 
L 118.458 72.895916 
L 118.737 71.462042 
L 119.295 70.53809 
L 119.574 70.284149 
L 119.853 70.588357 
L 120.132 69.918548 
L 120.411 69.880094 
L 120.69 68.223423 
L 120.969 67.717594 
L 121.248 50.512511 
L 121.527 22.825823 
L 121.806 26.771306 
L 122.085 56.943721 
L 122.364 69.982789 
L 122.643 71.318102 
L 122.922 71.272532 
L 123.201 70.370687 
L 123.48 70.26096 
L 123.759 69.715526 
L 124.038 68.546013 
L 124.317 68.40317 
L 124.596 67.724253 
L 124.875 67.620442 
L 125.154 66.053615 
L 125.433 113.985734 
L 125.712 103.727969 
L 125.991 61.570057 
L 126.27 73.684667 
L 126.549 61.992921 
L 126.828 130.47572 
L 127.074131 145 
M 128.078968 145 
L 128.781 62.627517 
L 129.06 66.431809 
L 129.339 63.024255 
L 129.618 67.800221 
L 129.897 63.670971 
L 130.176 68.421673 
L 130.455 63.372169 
L 130.734 68.766935 
L 131.013 60.065122 
L 131.292 73.530687 
L 131.510932 -1 
M 132.078144 -1 
L 132.129 13.742546 
L 132.408 62.101868 
L 132.687 59.80407 
L 132.966 59.976112 
L 133.245 58.684078 
L 133.524 59.637325 
L 133.803 58.460884 
L 134.082 59.912571 
L 134.361 57.331043 
L 134.64 60.799702 
L 134.919 54.731402 
L 135.162857 145 
M 136.752265 145 
L 136.872 135.616725 
L 137.151 129.601353 
L 137.43 114.168985 
L 137.709 109.20002 
L 138.267 57.943458 
L 138.546 59.66352 
L 138.825 64.339721 
L 139.104 77.913698 
L 139.383 106.675764 
L 139.662 123.009003 
L 139.941 123.67735 
L 140.22 123.120485 
L 140.499 109.804517 
L 140.778 59.658586 
L 141.057 58.086534 
L 141.336 57.784525 
L 141.615 59.407967 
L 141.894 59.540223 
L 142.173 60.739788 
L 142.452 59.8879 
L 143.01 60.442519 
L 143.289 61.357175 
L 143.568 60.794047 
L 143.847 61.979902 
L 144.126 61.242685 
L 144.405 62.148076 
L 144.684 61.342332 
L 144.963 62.375218 
L 145.242 62.271237 
L 145.521 62.878021 
L 145.8 62.967855 
L 146.079 63.662602 
L 146.358 63.355299 
L 146.637 64.631089 
L 146.916 64.233621 
L 147.195 65.321439 
L 147.474 65.823373 
L 147.753 66.887619 
L 148.032 66.214846 
L 148.311 67.318615 
L 148.59 67.152399 
L 149.148 69.239172 
L 149.427 77.663366 
L 149.706 69.903927 
L 149.985 71.42075 
L 150.264 68.955513 
L 150.543 75.099097 
L 150.822 101.304809 
L 151.101 90.221444 
L 151.38 73.350812 
L 151.659 69.536682 
L 151.938 69.016879 
L 152.217 69.623149 
L 152.496 69.372693 
L 152.775 70.234475 
L 153.333 73.205041 
L 153.612 73.249741 
L 153.891 75.645547 
L 154.17 75.384214 
L 154.449 77.450775 
L 154.728 77.378837 
L 155.007 78.680543 
L 155.286 79.308494 
L 155.565 80.228322 
L 155.844 80.59674 
L 156.123 82.183953 
L 156.402 81.429224 
L 156.681 83.440332 
L 156.96 82.944074 
L 157.239 84.946133 
L 157.518 84.182628 
L 157.797 85.813468 
L 158.076 85.49816 
L 158.355 87.047665 
L 158.634 86.846715 
L 158.913 88.73462 
L 159.192 88.100292 
L 159.471 89.844671 
L 159.75 89.409989 
L 160.029 91.163643 
L 160.308 90.629846 
L 160.587 92.473584 
L 160.866 91.674238 
L 161.145 94.384106 
L 161.424 93.359502 
L 161.703 96.238271 
L 161.982 94.361436 
L 162.261 97.443174 
L 162.54 95.275887 
L 162.819 97.951092 
L 163.098 95.290923 
L 163.377 99.052693 
L 163.656 95.354504 
L 163.935 101.338486 
L 164.214 94.492157 
L 164.493 104.35075 
L 165.051 -0.333719 
L 165.33 16.819344 
L 165.609 18.419602 
L 165.888 27.586437 
L 166.167 28.577193 
L 166.446 34.905558 
L 166.725 31.480691 
L 167.004 35.716531 
L 167.283 30.864147 
L 167.562 31.217093 
L 168.12 29.929305 
L 168.399 30.5159 
L 168.678 35.996499 
L 168.957 35.186322 
L 169.236 36.658855 
L 169.515 37.39495 
L 169.794 32.752962 
L 170.073 20.287552 
L 170.631 30.377036 
L 170.91 29.751171 
L 171.189 30.132257 
L 171.747 41.60033 
L 172.026 48.63981 
L 172.305 43.524345 
L 172.584 40.639202 
L 172.863 43.411153 
L 173.142 48.292545 
L 174.258 103.961804 
L 174.537 105.540721 
L 174.816 106.267417 
L 175.095 106.164042 
L 175.653 111.542403 
L 175.932 111.629263 
L 176.211 111.304655 
L 176.49 111.176143 
L 176.769 111.886305 
L 177.048 111.002483 
L 177.327 112.15795 
L 177.606 111.362844 
L 177.885 112.722393 
L 178.164 111.895534 
L 178.443 112.943641 
L 178.722 111.673117 
L 179.001 113.390026 
L 179.28 111.736137 
L 179.559 113.213142 
L 179.838 111.372779 
L 180.117 113.141189 
L 180.396 111.38712 
L 180.675 113.522792 
L 180.954 105.636279 
L 181.233 111.235223 
L 181.791 25.761076 
L 182.07 32.658228 
L 182.349 25.709798 
L 182.628 29.587201 
L 182.907 24.88989 
L 183.186 25.677211 
L 183.465 22.318674 
L 184.023 28.616069 
L 184.302 36.757924 
L 184.581 41.191233 
L 184.86 42.859398 
L 185.139 33.190188 
L 185.697 32.300602 
L 185.976 33.873059 
L 186.534 50.933241 
L 186.813 45.779293 
L 187.092 49.536366 
L 187.371 47.053916 
L 187.65 47.347235 
L 187.929 44.610208 
L 188.208 44.762721 
L 188.487 33.6391 
L 188.766 30.001682 
L 189.045 52.866497 
L 189.324 45.016148 
L 189.603 41.007919 
L 190.161 20.601837 
L 190.44 20.548559 
L 190.998 31.830475 
L 191.277 31.67904 
L 191.556 40.387926 
L 191.835 84.41676 
L 192.114 94.91487 
L 192.393 94.646815 
L 192.672 94.974073 
L 192.951 97.067692 
L 193.23 95.613246 
L 193.509 93.310099 
L 193.788 93.545059 
L 194.067 92.420559 
L 194.346 92.636137 
L 194.625 92.463895 
L 195.183 91.479795 
L 195.462 92.323963 
L 195.741 91.282475 
L 196.02 91.575867 
L 196.299 91.278072 
L 196.578 91.217833 
L 196.857 90.933544 
L 197.136 90.347305 
L 197.415 90.957836 
L 197.694 90.408061 
L 197.973 90.543926 
L 198.531 89.462156 
L 198.81 88.79818 
L 199.089 88.441882 
L 199.647 88.155276 
L 200.205 86.34569 
L 201.042 85.04839 
L 201.6 84.408196 
L 201.879 83.570062 
L 202.158 83.364823 
L 202.437 82.591905 
L 202.716 83.519806 
L 202.995 82.389507 
L 203.274 82.398676 
L 203.553 81.046073 
L 203.832 81.081971 
L 204.39 79.764415 
L 204.669 79.4203 
L 204.948 79.325198 
L 205.227 78.896485 
L 205.506 78.262923 
L 205.785 77.941499 
L 206.064 78.81496 
L 206.343 77.370495 
L 206.622 78.045356 
L 206.901 77.980375 
L 207.18 74.792164 
L 207.459 73.629967 
L 207.738 75.240533 
L 208.017 74.856128 
L 208.296 72.529968 
L 208.575 72.903857 
L 208.854 74.154976 
L 209.133 76.108174 
L 209.412 74.98892 
L 209.691 74.897353 
L 209.97 76.798866 
L 210.249 76.794433 
L 210.528 74.339576 
L 210.807 74.014257 
L 211.086 74.292163 
L 211.365 75.556291 
L 211.644 75.060923 
L 211.923 73.44481 
L 212.202 74.580683 
L 212.481 74.29648 
L 213.039 72.862181 
L 213.318 72.975498 
L 213.876 72.828792 
L 214.434 72.155561 
L 214.713 72.286506 
L 214.992 72.646749 
L 215.271 71.766134 
L 215.829 71.064042 
L 216.108 71.192539 
L 216.387 71.151853 
L 216.666 71.297883 
L 216.945 70.368302 
L 217.224 70.576428 
L 217.503 70.379993 
L 217.782 70.981888 
L 218.061 68.994539 
L 218.34 69.948901 
L 218.619 69.344413 
L 218.898 69.628207 
L 219.177 69.106152 
L 219.456 69.337538 
L 219.735 68.871571 
L 220.293 68.701382 
L 220.572 68.908429 
L 220.851 68.634117 
L 221.13 68.894542 
L 221.409 68.232781 
L 222.246 68.490736 
L 222.525 67.87397 
L 222.804 68.231692 
L 223.362 67.647553 
L 223.92 68.109713 
L 224.199 67.625727 
L 224.757 67.384197 
L 225.036 66.872909 
L 225.315 67.287501 
L 225.594 66.83557 
L 225.873 67.373414 
L 226.152 66.281235 
L 226.431 66.729098 
L 226.71 64.792058 
L 226.989 67.42429 
L 227.268 62.409479 
L 227.547 81.074646 
L 227.826 138.841055 
L 228.384 111.83732 
L 228.663 80.471113 
L 228.942 66.799165 
L 229.221 67.306207 
L 229.5 68.108121 
L 229.779 68.286029 
L 230.058 69.000612 
L 230.337 68.368974 
L 230.616 69.582638 
L 230.895 68.441628 
L 231.174 69.670672 
L 231.453 68.413616 
L 231.732 68.661699 
L 232.011 67.386184 
L 232.29 68.125495 
L 232.569 67.153233 
L 232.848 67.540701 
L 233.127 66.631831 
L 233.406 67.751233 
L 233.685 66.414501 
L 233.964 67.353204 
L 234.243 66.190415 
L 234.522 68.230993 
L 234.801 66.594318 
L 235.08 68.274298 
L 235.359 66.493183 
L 235.638 66.611972 
L 235.917 76.500855 
L 236.06192 145 
M 236.782537 145 
L 237.033 117.195763 
L 237.312 69.605246 
L 237.591 71.7943 
L 237.87 68.729211 
L 238.149 71.464411 
L 238.428 69.569746 
L 238.707 71.295256 
L 238.986 70.474403 
L 239.265 71.161966 
L 239.544 71.169316 
L 239.823 71.74156 
L 240.102 71.708513 
L 240.381 72.3296 
L 240.66 71.441141 
L 240.939 71.819761 
L 241.218 71.175678 
L 241.497 71.692071 
L 241.776 71.081049 
L 242.055 71.492046 
L 242.334 71.155449 
L 242.613 72.122141 
L 242.892 70.940454 
L 243.171 71.741108 
L 243.45 71.526779 
L 243.729 72.180075 
L 244.008 71.951153 
L 244.287 72.678439 
L 244.566 72.147578 
L 244.845 72.372036 
L 245.124 72.217357 
L 245.403 72.888376 
L 245.682 72.285145 
L 245.961 71.076464 
L 246.24 68.849494 
L 246.519 68.88054 
L 246.798 68.543473 
L 247.077 68.774615 
L 247.356 66.267042 
L 247.635 67.212161 
L 247.914 66.587004 
L 248.417104 -1 
M 248.591074 -1 
L 248.751 7.885006 
L 249.029439 -1 
M 249.030143 -1 
L 249.588 66.203651 
L 249.867 67.647257 
L 250.146 70.608992 
L 250.425 69.053475 
L 250.704 69.469728 
L 251.262 72.350091 
L 251.541 70.515597 
L 251.82 70.824674 
L 252.099 75.060583 
L 252.378 71.491586 
L 252.657 72.620727 
L 252.936 74.486106 
L 253.215 75.075428 
L 253.494 72.660485 
L 253.773 75.664379 
L 254.052 76.389906 
L 254.331 73.659922 
L 254.61 75.271938 
L 254.889 76.18762 
L 255.168 74.322637 
L 255.447 76.493171 
L 255.726 75.329979 
L 256.005 75.361718 
L 256.284 74.902387 
L 256.563 77.672163 
L 257.121 73.430723 
L 257.4 77.722304 
L 257.679 76.553328 
L 257.958 74.532008 
L 258.237 75.483526 
L 258.516 77.32553 
L 258.795 74.814906 
L 259.074 74.451488 
L 259.353 76.099338 
L 259.632 75.782939 
L 259.911 74.850133 
L 260.19 76.744426 
L 260.469 75.8245 
L 260.748 72.618798 
L 261.306 77.890972 
L 261.585 73.463647 
L 262.143 76.209846 
L 262.422 74.583821 
L 262.701 73.841362 
L 262.98 75.969913 
L 263.259 75.559397 
L 263.538 74.077382 
L 263.817 74.14011 
L 264.096 75.489567 
L 264.654 71.792054 
L 264.933 71.873105 
L 265.212 70.98328 
L 265.491 70.647514 
L 265.77 71.362518 
L 266.049 71.249796 
L 266.328 71.787045 
L 266.607 71.699774 
L 266.886 72.490344 
L 267.165 72.918598 
L 267.444 74.31626 
L 267.723 74.099883 
L 268.002 75.21754 
L 268.281 75.034777 
L 268.839 75.327818 
L 269.118 75.486216 
L 269.676 75.526487 
L 269.955 75.159768 
L 270.234 75.230624 
L 270.513 74.241636 
L 271.35 75.037095 
L 271.629 74.622083 
L 271.908 75.112964 
L 272.187 74.558184 
L 272.745 74.550024 
L 273.024 74.67713 
L 273.303 74.409895 
L 273.861 74.238765 
L 274.14 73.941711 
L 274.419 73.481961 
L 274.698 73.487826 
L 274.977 73.281657 
L 275.256 73.725289 
L 275.535 73.03569 
L 275.814 72.990696 
L 276.093 73.138329 
L 276.651 73.095968 
L 276.93 73.294782 
L 277.209 72.743768 
L 277.488 73.532799 
L 277.767 72.888799 
L 278.325 72.331755 
L 278.604 72.546987 
L 278.883 72.422 
L 279.162 72.61426 
L 279.441 72.334232 
L 279.72 72.316081 
L 279.999 72.090829 
L 280.278 72.127809 
L 281.115 71.945074 
L 281.952 72.187147 
L 282.789 72.337614 
L 283.626 71.97769 
L 283.905 72.360149 
L 284.184 71.817676 
L 284.463 71.993863 
L 284.742 72.358588 
L 285.021 71.870033 
L 285.3 71.768584 
L 286.416 71.881817 
L 286.695 72.131317 
L 286.974 72.693172 
L 287.253 71.965785 
L 287.532 72.453299 
L 288.09 72.076538 
L 288.369 71.955434 
L 288.648 72.435322 
L 288.927 71.710778 
L 289.206 72.080381 
L 289.485 71.918151 
L 289.764 72.518727 
L 290.043 72.157921 
L 290.601 72.387863 
L 290.88 72.347662 
L 291.159 71.86815 
L 291.717 73.204191 
L 291.996 74.188255 
L 292.275 73.814175 
L 293.391 74.22018 
L 293.67 74.734131 
L 294.228 74.160704 
L 294.507 74.274669 
L 294.786 74.239489 
L 295.065 73.995705 
L 295.344 74.537221 
L 295.623 72.55562 
L 295.902 72.073898 
L 296.181 71.946995 
L 296.46 72.438133 
L 296.739 72.629471 
L 297.018 73.206037 
L 297.297 72.734376 
L 297.855 72.871885 
L 298.134 73.15005 
L 298.413 73.178738 
L 298.692 73.751573 
L 298.971 73.496522 
L 299.25 72.72 
L 299.529 72.72 
L 299.808 72.571496 
L 300.087 72.673014 
L 300.366 73.006445 
L 300.645 72.492358 
L 300.924 73.038786 
L 301.203 72.996817 
L 301.482 75.530883 
L 302.04 72.559663 
L 302.319 73.827022 
L 302.598 72.520021 
L 302.877 73.368634 
L 303.156 72.017892 
L 303.435 73.076097 
L 303.714 72.881188 
L 304.551 73.637529 
L 304.83 73.119827 
L 305.109 73.126414 
L 305.388 73.797328 
L 305.667 73.436611 
L 305.946 73.435609 
L 306.225 73.940792 
L 306.504 72.94631 
L 306.783 73.402632 
L 307.062 74.11299 
L 307.341 73.471274 
L 307.62 73.606035 
L 308.178 73.36509 
L 308.457 72.274611 
L 308.736 72.021133 
L 309.294 72.135672 
L 309.573 71.76453 
L 309.852 72.43978 
L 310.131 71.945165 
L 310.41 72.764199 
L 310.968 72.752515 
L 311.247 72.257053 
L 311.526 72.904474 
L 311.805 72.766448 
L 312.084 72.782296 
L 312.363 72.936423 
L 312.921 72.327989 
L 313.2 72.606049 
L 313.479 72.299175 
L 313.758 72.562834 
L 314.037 73.144443 
L 314.316 73.438429 
L 314.595 73.407068 
L 315.153 73.578197 
L 315.432 74.021578 
L 315.99 73.460702 
L 316.269 75.788478 
L 316.827 74.366957 
L 317.106 74.495271 
L 317.385 73.805558 
L 317.664 72.67506 
L 317.943 72.718018 
L 318.222 72.889708 
L 318.501 72.42165 
L 318.78 73.112404 
L 319.059 72.834378 
L 319.338 72.735576 
L 319.617 73.284482 
L 319.896 72.8036 
L 320.175 72.057737 
L 320.454 71.984663 
L 321.012 72.704858 
L 321.291 71.975327 
L 321.57 72.351229 
L 321.849 74.006119 
L 322.128 72.395943 
L 322.407 74.923612 
L 322.686 72.439651 
L 322.965 73.572231 
L 323.244 72.74397 
L 323.523 72.592396 
L 323.802 72.616549 
L 324.081 72.183591 
L 324.36 72.482955 
L 324.918 72.541462 
L 325.197 72.185165 
L 325.476 72.664972 
L 325.755 72.582363 
L 326.034 72.305302 
L 326.313 72.442224 
L 326.592 72.095862 
L 326.871 72.854065 
L 327.429 72.464359 
L 327.708 72.356021 
L 327.987 72.415364 
L 328.266 72.209867 
L 328.545 72.933829 
L 328.824 73.978265 
L 329.103 72.488186 
L 329.382 74.671406 
L 329.661 73.078582 
L 329.94 74.167963 
L 330.219 72.854895 
L 330.498 72.660448 
L 330.777 73.141079 
L 331.056 72.472724 
L 331.335 72.235296 
L 331.614 72.678962 
L 332.172 72.454994 
L 332.451 72.511336 
L 332.73 72.807936 
L 333.009 72.462613 
L 333.288 72.487036 
L 333.567 72.696114 
L 334.125 72.048448 
L 334.404 72.229893 
L 334.683 72.062467 
L 334.962 72.198303 
L 335.241 72.092475 
L 335.52 71.683725 
L 336.078 72.355629 
L 336.636 71.984101 
L 336.915 72.286409 
L 338.031 72.590969 
L 338.31 72.49665 
L 338.589 72.181273 
L 338.868 72.47351 
L 339.147 72.312415 
L 339.426 72.74398 
L 339.705 72.484135 
L 339.984 72.741588 
L 340.263 72.489776 
L 340.542 72.441421 
L 340.821 72.70731 
L 341.1 73.19362 
L 341.379 72.835544 
L 341.658 73.21649 
L 341.937 72.619282 
L 342.216 73.412654 
L 342.495 72.826958 
L 342.774 73.192134 
L 343.053 72.998277 
L 343.611 72.959716 
L 343.89 73.205426 
L 344.169 72.832797 
L 345.285 72.715411 
L 345.564 72.978367 
L 345.843 72.757051 
L 346.122 73.109264 
L 346.401 72.845537 
L 346.959 72.676137 
L 347.517 73.0358 
L 347.796 72.96379 
L 348.075 72.749817 
L 348.354 72.731921 
L 348.633 72.873656 
L 348.912 72.762046 
L 349.191 72.793583 
L 349.47 72.989037 
L 349.749 72.787262 
L 350.028 72.754084 
L 350.307 73.085884 
L 350.586 73.019833 
L 350.865 72.433247 
L 351.144 72.842201 
L 351.423 73.042643 
L 351.702 72.850768 
L 351.981 73.269608 
L 352.26 72.543732 
L 352.818 72.889143 
L 353.097 72.73227 
L 353.376 73.140292 
L 353.934 72.197537 
L 354.213 71.469455 
L 354.771 69.069404 
L 355.05 69.229308 
L 355.329 69.713085 
L 355.887 70.990942 
L 356.445 72.085108 
L 357.282 72.264862 
L 357.561 72.283347 
L 357.84 72.728825 
L 358.119 72.598802 
L 358.677 73.155598 
L 358.956 72.960128 
L 359.235 72.492018 
L 360.072 73.124966 
L 360.351 73.95836 
L 360.63 74.354263 
L 360.909 74.02513 
L 361.188 74.436398 
L 361.467 74.410775 
L 361.746 74.076564 
L 362.304 74.116923 
L 362.583 73.699794 
L 362.862 73.86552 
L 363.978 73.510571 
L 364.257 73.325323 
L 364.536 72.824955 
L 365.094 73.345564 
L 365.652 73.301361 
L 365.931 73.061486 
L 367.047 73.022387 
L 367.326 72.965782 
L 367.605 73.313354 
L 367.884 73.089816 
L 368.442 73.423623 
L 368.721 72.830155 
L 369 72.965125 
L 369.279 72.72 
L 369.558 72.72 
L 369.837 72.887877 
L 370.674 72.641775 
L 370.953 72.760453 
L 371.79 72.777654 
L 372.069 73.003426 
L 372.627 72.957803 
L 372.906 72.741749 
L 373.185 72.899099 
L 373.464 72.656785 
L 373.743 73.424639 
L 374.022 72.988351 
L 374.301 73.338504 
L 374.58 73.067709 
L 374.859 73.46886 
L 375.138 73.40236 
L 375.417 73.501621 
L 375.975 73.141249 
L 376.254 73.446294 
L 376.533 73.273781 
L 377.091 73.608671 
L 377.37 73.464163 
L 377.649 73.586201 
L 377.928 73.430012 
L 378.207 73.042685 
L 378.765 72.972277 
L 379.044 73.013364 
L 379.323 73.185232 
L 379.602 72.877471 
L 379.881 72.936389 
L 380.16 72.758971 
L 380.439 72.820432 
L 380.718 72.563853 
L 381.555 68.898009 
L 381.834 68.677142 
L 382.113 69.476928 
L 382.392 69.895489 
L 382.671 71.06537 
L 383.229 72.357748 
L 383.787 72.493151 
L 384.345 73.470714 
L 385.182 73.830191 
L 385.461 73.438058 
L 386.298 73.812849 
L 386.577 73.727175 
L 387.135 74.06327 
L 387.414 73.591419 
L 387.693 73.607143 
L 387.972 73.134162 
L 388.251 73.33534 
L 388.53 73.196904 
L 388.809 73.536804 
L 389.088 73.113317 
L 389.367 73.380659 
L 389.646 73.298157 
L 389.925 73.799938 
L 390.204 73.135932 
L 390.483 73.402216 
L 390.762 72.964915 
L 391.041 73.59146 
L 391.599 73.458972 
L 392.436 68.142439 
L 392.715 68.128658 
L 393.552 70.629707 
L 393.831 71.858133 
L 394.389 72.171132 
L 394.947 73.023089 
L 395.226 72.92879 
L 395.505 73.790752 
L 395.784 73.019308 
L 396.063 73.079563 
L 396.342 72.831054 
L 396.621 72.87838 
L 396.9 73.359603 
L 397.179 73.26205 
L 397.458 73.365114 
L 397.737 73.205216 
L 398.016 73.280034 
L 398.295 73.159519 
L 398.574 73.325851 
L 399.411 73.038647 
L 399.69 72.707051 
L 399.969 73.16309 
L 400.248 73.096168 
L 400.527 73.149743 
L 401.085 73.021583 
L 401.364 73.03079 
L 401.643 73.34034 
L 401.922 72.967263 
L 402.201 72.8304 
L 402.48 72.846285 
L 402.759 73.145478 
L 403.038 72.947614 
L 403.596 72.969959 
L 404.154 72.505788 
L 404.433 72.65038 
L 404.712 72.142447 
L 404.991 72.708447 
L 405.27 72.642377 
L 405.549 72.454546 
L 405.828 72.740279 
L 406.107 72.516715 
L 406.386 72.991404 
L 406.665 72.568534 
L 408.06 72.924208 
L 408.339 72.890935 
L 408.618 73.303658 
L 408.897 72.961607 
L 409.176 73.016022 
L 409.734 72.623397 
L 410.013 72.969955 
L 410.292 72.692552 
L 410.571 72.963711 
L 410.85 72.744168 
L 411.129 73.257212 
L 411.408 72.474569 
L 411.687 73.09668 
L 411.966 72.689938 
L 412.524 73.525204 
L 412.803 72.881039 
L 413.361 72.947059 
L 413.64 72.473181 
L 414.198 72.937614 
L 414.477 72.483256 
L 414.756 72.837554 
L 415.314 73.024505 
L 416.988 72.588582 
L 417.267 73.36843 
L 417.825 72.811098 
L 418.383 73.20508 
L 418.662 72.780657 
L 418.941 73.133076 
L 419.22 72.629331 
L 419.499 72.801748 
L 419.778 72.754122 
L 420.057 73.100928 
L 420.336 73.005855 
L 420.615 73.108839 
L 420.894 72.806695 
L 421.173 72.943967 
L 421.452 72.58049 
L 421.731 73.130508 
L 422.01 73.010145 
L 422.289 72.653784 
L 422.847 72.915874 
L 423.126 72.596186 
L 423.405 73.082912 
L 423.684 72.66379 
L 423.963 73.294273 
L 424.8 68.641071 
L 425.079 69.649136 
L 425.358 69.15605 
L 425.637 70.631067 
L 425.916 70.223703 
L 426.195 71.671195 
L 426.753 72.264498 
L 427.032 72.255423 
L 427.311 72.820354 
L 428.427 72.881707 
L 428.706 72.499265 
L 428.985 73.19435 
L 429.543 72.821175 
L 429.822 73.277567 
L 430.101 72.955407 
L 430.938 72.845954 
L 431.217 73.244744 
L 431.496 72.821613 
L 431.775 72.975199 
L 432.054 72.759477 
L 432.333 73.231263 
L 432.612 72.947369 
L 433.17 73.24296 
L 433.449 72.907415 
L 433.728 72.887542 
L 434.007 73.721976 
L 434.286 72.886914 
L 434.565 73.485168 
L 434.844 73.360327 
L 435.123 72.85924 
L 435.402 72.843837 
L 435.681 73.073027 
L 436.239 73.189085 
L 436.518 72.660934 
L 436.797 72.954322 
L 437.076 72.540914 
L 437.355 72.798407 
L 437.634 72.543763 
L 437.913 72.988271 
L 438.192 72.407451 
L 438.471 72.728533 
L 438.75 72.864146 
L 439.029 73.169454 
L 439.308 72.72 
L 439.587 72.72 
L 439.866 71.973145 
L 440.145 72.310718 
L 440.703 72.049127 
L 440.982 72.582716 
L 441.261 71.71105 
L 441.54 72.023808 
L 441.819 71.861854 
L 442.098 71.10031 
L 442.377 69.788168 
L 442.656 69.060993 
L 442.935 69.267731 
L 443.493 70.197514 
L 443.772 70.905072 
L 444.051 70.917242 
L 444.33 71.696096 
L 444.609 71.833655 
L 444.888 71.528295 
L 445.167 72.304355 
L 445.446 72.153461 
L 445.725 72.666539 
L 446.004 72.308583 
L 446.562 72.908553 
L 446.841 72.446732 
L 447.12 72.482528 
L 447.399 71.742381 
L 447.678 71.639291 
L 447.957 71.89932 
L 448.236 72.560463 
L 448.515 72.232772 
L 448.794 72.158701 
L 449.073 72.808033 
L 449.631 72.13363 
L 450.189 72.285175 
L 450.468 72.146832 
L 450.747 72.425222 
L 451.026 71.963185 
L 451.305 72.464275 
L 451.584 71.90703 
L 451.863 72.754356 
L 452.142 72.243759 
L 452.421 72.64487 
L 452.7 72.527101 
L 452.979 72.26392 
L 453.258 73.150459 
L 453.816 72.603904 
L 454.095 72.712108 
L 454.374 72.280955 
L 454.653 72.877493 
L 454.932 72.760133 
L 455.211 72.487708 
L 455.49 72.487581 
L 456.048 73.19226 
L 456.327 74.126472 
L 456.606 73.868553 
L 457.164 74.75216 
L 457.443 74.673553 
L 457.722 74.087871 
L 458.001 73.966026 
L 458.28 74.065534 
L 458.559 74.394455 
L 458.838 73.790864 
L 459.675 74.513052 
L 459.954 74.060993 
L 460.233 74.727308 
L 460.512 73.899123 
L 460.791 74.297749 
L 461.628 74.018056 
L 462.186 74.112666 
L 462.465 73.727598 
L 462.744 73.674812 
L 463.023 73.821879 
L 463.302 74.10415 
L 463.86 73.994463 
L 464.139 73.466849 
L 464.418 73.887326 
L 464.976 73.209986 
L 465.534 73.553402 
L 466.092 73.265948 
L 466.371 73.225952 
L 466.929 73.575169 
L 467.208 73.431163 
L 467.487 73.67135 
L 467.766 73.344717 
L 468.045 73.388545 
L 468.324 73.161342 
L 468.603 73.29245 
L 468.882 73.141574 
L 469.161 73.254913 
L 469.719 73.101124 
L 469.998 73.32576 
L 470.277 72.891784 
L 470.556 72.910586 
L 470.835 73.147478 
L 471.114 72.809374 
L 471.393 73.188394 
L 471.951 72.99026 
L 472.23 72.877902 
L 472.509 73.210646 
L 472.788 72.548935 
L 473.067 73.042773 
L 473.625 72.951544 
L 473.904 72.125172 
L 474.462 68.21558 
L 475.02 66.943319 
L 475.299 67.500851 
L 475.578 67.759254 
L 475.857 68.881719 
L 476.415 70.1475 
L 476.694 70.919034 
L 476.973 71.346277 
L 477.252 71.336829 
L 477.81 72.290945 
L 478.089 72.212251 
L 478.368 72.68112 
L 478.647 72.372246 
L 478.926 73.16807 
L 479.205 73.531247 
L 479.484 72.772841 
L 479.763 73.568974 
L 480.042 72.896482 
L 480.6 73.16309 
L 480.879 73.637051 
L 481.158 73.321822 
L 481.716 73.453092 
L 481.995 73.879388 
L 482.274 73.646253 
L 482.553 73.233661 
L 482.832 73.152246 
L 483.111 73.369993 
L 484.227 73.144197 
L 484.506 73.048893 
L 484.785 73.49243 
L 485.064 73.413494 
L 485.343 73.483922 
L 485.622 73.251929 
L 485.901 73.514416 
L 486.18 73.421845 
L 486.459 72.855024 
L 487.017 70.494244 
L 487.296 69.523587 
L 488.133 71.561884 
L 488.412 71.679891 
L 488.691 72.943249 
L 488.97 72.636891 
L 489.249 73.027578 
L 489.528 72.831954 
L 489.807 73.959058 
L 490.365 73.395193 
L 490.644 73.792654 
L 490.923 73.238041 
L 491.202 73.800797 
L 491.481 73.27366 
L 491.76 73.846077 
L 492.039 72.845103 
L 492.318 73.359752 
L 492.597 73.170144 
L 492.876 72.78536 
L 493.155 73.195133 
L 493.434 72.662675 
L 493.713 73.110823 
L 493.992 72.394564 
L 494.271 72.788905 
L 494.55 72.656584 
L 494.829 72.782204 
L 495.108 71.951561 
L 495.387 72.29034 
L 495.666 71.851157 
L 495.945 72.022809 
L 496.224 71.857772 
L 496.503 71.493528 
L 497.061 71.845864 
L 497.34 71.855033 
L 497.619 72.938632 
L 497.898 72.463138 
L 498.177 72.674363 
L 498.456 72.72145 
L 498.735 72.627595 
L 499.572 72.836801 
L 500.13 73.096878 
L 500.409 73.041881 
L 500.688 72.755101 
L 501.246 72.875618 
L 501.525 72.947611 
L 501.804 72.444052 
L 502.083 72.969007 
L 502.362 72.644272 
L 502.641 72.97338 
L 502.92 72.988531 
L 503.199 73.529345 
L 503.757 73.837363 
L 504.036 73.407503 
L 504.315 73.934013 
L 504.594 73.454686 
L 504.873 73.620288 
L 505.152 72.944097 
L 505.431 73.630306 
L 505.71 72.170167 
L 505.989 72.932314 
L 506.268 71.956016 
L 506.547 72.828827 
L 506.826 71.941914 
L 507.105 72.567292 
L 507.384 71.939252 
L 507.663 72.536308 
L 507.942 72.791518 
L 508.221 72.110322 
L 508.779 72.243447 
L 509.058 72.146744 
L 509.337 72.72 
L 509.616 72.72 
L 509.840826 -1 
M 511.005828 -1 
L 511.169904 145 
M 511.732122 145 
L 511.848 36.469143 
L 512.109212 145 
M 514.887991 145 
L 514.917 128.140918 
L 515.196 58.293458 
L 515.475 52.213295 
L 515.754 49.734926 
L 516.033 55.131064 
L 516.312 47.940185 
L 516.591 50.024634 
L 516.87 43.266914 
L 517.149 47.569854 
L 517.428 49.731972 
L 517.707 40.748431 
L 517.763614 -1 
M 519.065101 -1 
L 519.102 24.001098 
L 519.381 49.794932 
L 519.66 38.509482 
L 519.71999 -1 
M 522.395664 -1 
L 522.45 32.555776 
L 522.729 44.311283 
L 523.008 23.071008 
L 523.248647 145 
M 523.824803 145 
L 523.845 130.586433 
L 524.124 45.951695 
L 524.242641 145 
M 525.442603 145 
L 525.519 92.133916 
L 525.798 26.044493 
L 526.077 50.668392 
L 526.356 33.380338 
L 526.635 45.325888 
L 526.914 33.664813 
L 527.193 42.666119 
L 527.472 32.854033 
L 527.751 41.553039 
L 528.03 32.29957 
L 528.309 53.259868 
L 528.430777 145 
M 529.340888 145 
L 529.425 83.64775 
L 529.603419 145 
M 530.24151 145 
L 530.262 129.870068 
L 530.541 28.840547 
L 530.82 38.800516 
L 531.099 34.602977 
L 531.378 42.009752 
L 531.657 24.76134 
L 531.936 89.445041 
L 532.030173 145 
M 532.330983 145 
L 532.48629 -1 
M 532.503636 -1 
L 532.69774 145 
M 535.342792 145 
L 535.563 100.85787 
L 535.842 71.25503 
L 536.121 21.092977 
L 536.4 52.594366 
L 536.679 29.030965 
L 536.958 47.22182 
L 537.237 30.776757 
L 537.516 46.874408 
L 537.795 25.373082 
L 538.074 85.250743 
L 538.153009 145 
M 539.301543 145 
L 539.469 23.766999 
L 539.748 50.283021 
L 540.027 32.603154 
L 540.306 49.63288 
L 540.585 32.031314 
L 540.864 46.204227 
L 540.932112 -1 
M 543.76174 -1 
L 543.933 61.684111 
L 544.212 31.583836 
L 544.491 56.978322 
L 544.77 35.238116 
L 545.049 52.405206 
L 545.328 36.22338 
L 545.607 57.526967 
L 545.886 35.754509 
L 546.165 61.46346 
L 546.444 19.311305 
L 546.6975 145 
M 548.233645 145 
L 548.397 33.57089 
L 548.676 63.134154 
L 548.955 43.38893 
L 549.234 58.246954 
L 549.513 45.000867 
L 549.792 58.852625 
L 550.071 49.882341 
L 550.35 58.411915 
L 550.629 48.723372 
L 550.908 56.025115 
L 551.187 49.012068 
L 551.466 57.251624 
L 551.745 49.716485 
L 552.024 58.716911 
L 552.303 51.591792 
L 552.582 58.177545 
L 552.861 50.453507 
L 553.14 57.449253 
L 553.419 50.602727 
L 553.698 58.214797 
L 553.977 48.62142 
L 554.256 56.275025 
L 554.535 47.758361 
L 554.814 64.318087 
L 555.093 22.794439 
L 555.372 43.214596 
L 555.651 54.306239 
L 555.93 52.386329 
L 556.209 57.853458 
L 556.29901 -1 
M 557.004837 -1 
L 557.046 28.220586 
L 557.325 54.888207 
L 557.604 59.317132 
L 557.883 51.895197 
L 558.162 59.879323 
L 558.441 52.274673 
L 558.72 55.814776 
L 558.999 81.224482 
L 559.072967 145 
M 560.203515 145 
L 560.394 49.977541 
L 560.952 117.423473 
L 561.231 74.114641 
L 561.51 62.570566 
L 561.789 58.547534 
L 561.898476 145 
M 563.403195 145 
L 563.463 101.442927 
L 563.742 122.251708 
L 563.796686 145 
M 564.248673 145 
L 564.3 123.964079 
L 564.579 73.582355 
L 564.858 59.406856 
L 565.137 58.406628 
L 565.416 69.308574 
L 565.695 41.904328 
L 565.882425 145 
M 566.188245 145 
L 566.532 40.807225 
L 566.811 75.03008 
L 567.09 62.38353 
L 567.203717 -1 
M 569.493929 -1 
L 569.601 74.761435 
L 569.88 46.956473 
L 570.159 76.751069 
L 570.438 46.770627 
L 570.717 74.137665 
L 570.996 39.134042 
L 571.554 132.962978 
L 571.833 53.090319 
L 572.112 67.8023 
L 572.391 63.780702 
L 572.67 66.067012 
L 572.949 65.041542 
L 573.507 64.108458 
L 574.065 59.980191 
L 574.344 57.119471 
L 574.623 56.802718 
L 574.902 58.152397 
L 575.181 56.700913 
L 575.46 61.63828 
L 575.739 59.48001 
L 576.018 66.219248 
L 576.297 55.232305 
L 576.576 112.53046 
L 576.855 118.116861 
L 576.919855 145 
M 577.890086 145 
L 577.971 87.225561 
L 578.25 57.604123 
L 578.529 67.628299 
L 578.808 63.054268 
L 579.087 66.254243 
L 579.366 72.72 
L 579.645 72.72 
L 579.747727 -1 
M 581.197127 -1 
L 581.319 94.197957 
L 581.482585 -1 
M 581.770395 -1 
L 581.877 40.53343 
L 582.156 81.540128 
L 582.257831 -1 
M 584.008338 -1 
L 584.109 90.419331 
L 584.362876 145 
M 584.397259 145 
L 584.647515 -1 
M 585.091092 -1 
L 585.225 109.564453 
L 585.451224 145 
M 585.516192 145 
L 585.731506 -1 
M 586.194586 -1 
L 586.341 122.34197 
L 586.484278 145 
M 587.512414 145 
L 587.723466 -1 
M 589.609795 -1 
L 589.863728 145 
M 590.344543 145 
L 590.609003 -1 
M 592.508469 -1 
L 592.758 105.452565 
L 593.05327 -1 
M 594.418789 -1 
L 594.577501 145 
M 596.060689 145 
L 596.360669 -1 
M 596.478369 -1 
L 596.664 22.468866 
L 596.833159 145 
M 598.40945 145 
L 598.564096 -1 
M 599.672311 -1 
L 599.733 29.358297 
L 599.945787 -1 
M 600.026544 -1 
L 600.251325 145 
M 601.100646 145 
L 601.407 31.276708 
L 601.496392 -1 
M 602.122297 -1 
L 602.244 49.833949 
L 602.523 22.086028 
L 602.802 21.978763 
L 603.15292 145 
M 603.501801 145 
L 603.751839 -1 
M 605.074927 -1 
L 605.256012 145 
M 605.748425 145 
L 605.871 28.415161 
L 606.082386 145 
M 606.590742 145 
L 606.708 40.584008 
L 607.006837 145 
M 609.129144 145 
L 609.305163 -1 
M 610.062986 -1 
L 610.335 27.49312 
L 610.46099 -1 
M 610.652014 -1 
L 610.812405 145 
M 611.745112 145 
L 612.023469 -1 
M 612.697904 -1 
L 612.846 71.344064 
L 613.125 -0.217241 
L 613.404 65.802552 
L 613.640483 -1 
M 613.696615 -1 
L 613.862114 145 
M 614.300603 145 
L 614.594731 -1 
M 615.940153 -1 
L 616.073823 145 
M 616.583157 145 
L 616.752 28.452887 
L 616.911706 145 
M 617.62724 145 
L 617.817253 -1 
M 618.335417 -1 
L 618.580559 145 
M 619.210608 145 
L 619.263 106.028642 
L 619.542 30.954448 
L 619.821 20.552234 
L 620.1 134.820276 
L 620.379 87.44762 
L 620.461045 -1 
M 621.444932 -1 
L 621.495 43.74736 
L 621.67377 -1 
M 621.841349 -1 
L 622.164602 145 
M 622.462706 145 
L 622.611 30.708953 
L 622.89 1.506494 
L 623.408673 145 
M 623.939685 145 
L 624.164411 -1 
M 624.92478 -1 
L 625.058586 145 
M 625.759986 145 
L 625.959 108.404189 
L 626.124526 -1 
M 627.395236 -1 
L 627.537487 145 
M 629.116207 145 
L 629.307 20.386289 
L 629.453497 145 
M 631.109903 145 
L 631.26 29.921963 
L 631.539 54.181277 
L 631.607818 -1 
M 632.70736 -1 
L 632.828247 145 
M 633.612248 145 
L 633.771 82.481081 
L 633.845606 145 
M 635.357835 145 
L 635.445 71.976434 
L 635.724 73.672808 
L 635.984605 -1 
M 638.268714 -1 
L 638.410944 145 
M 639.619325 145 
L 639.63 137.059205 
L 639.649903 145 
M 640.154871 145 
L 640.188 131.071129 
L 640.242791 145 
M 642.298698 145 
L 642.530886 -1 
M 644.510448 -1 
L 644.652 39.364256 
L 644.830764 145 
M 645.296367 145 
L 645.489 12.918216 
L 645.768 37.935585 
L 646.047 118.104636 
L 646.326 122.276262 
L 646.519999 -1 
L 646.519999 -1 
" clip-path="url(#p5022d1bb5c)" style="fill: none; stroke: #808080; stroke-linecap: square"/>
   </g>
   <g id="line2d_16">
    <path d="M 90 72.72 
L 90.279 74.371191 
L 90.558 75.104753 
L 91.116 75.739815 
L 91.674 75.476555 
L 91.953 74.754582 
L 92.232 74.472305 
L 92.511 73.625955 
L 92.79 73.915572 
L 93.069 73.5182 
L 93.348 73.45208 
L 93.627 72.959969 
L 94.185 73.439996 
L 94.743 71.914234 
L 95.022 72.538053 
L 95.301 72.455776 
L 95.859 71.663598 
L 96.696 72.942419 
L 96.975 73.172708 
L 97.254 72.149549 
L 97.533 72.671764 
L 97.812 73.537288 
L 98.091 72.379424 
L 98.37 72.003163 
L 98.649 73.418362 
L 99.207 72.129554 
L 99.486 73.848389 
L 99.765 73.616496 
L 100.044 72.492311 
L 100.323 73.779231 
L 100.602 73.494786 
L 100.881 73.033237 
L 101.439 73.403484 
L 101.997 73.054837 
L 103.113 73.857373 
L 103.392 74.229239 
L 103.95 75.643194 
L 104.229 76.08018 
L 104.508 76.090984 
L 105.345 74.340582 
L 106.182 71.768622 
L 106.461 71.451139 
L 106.74 70.897337 
L 107.019 70.75785 
L 108.693 70.992052 
L 108.972 71.298013 
L 109.251 71.338263 
L 109.53 71.789455 
L 109.809 71.646599 
L 110.367 71.683384 
L 110.646 72.021977 
L 110.925 72.07609 
L 111.483 71.799096 
L 112.041 72.281741 
L 112.32 72.098811 
L 112.599 72.122051 
L 113.436 72.517937 
L 113.715 72.349949 
L 114.552 72.634958 
L 114.831 72.474253 
L 115.11 72.618732 
L 115.389 72.424916 
L 115.668 72.838942 
L 116.226 72.673303 
L 116.505 72.754815 
L 117.063 72.49728 
L 117.621 72.78147 
L 118.179 72.783904 
L 119.016 72.634156 
L 119.295 72.751105 
L 119.853 72.627561 
L 120.411 72.581171 
L 122.085 72.695066 
L 122.364 72.593634 
L 122.922 72.914366 
L 123.201 72.941345 
L 123.48 73.14269 
L 123.759 73.043438 
L 124.038 73.123547 
L 124.317 72.945682 
L 124.596 73.019068 
L 124.875 72.864259 
L 125.154 73.068044 
L 126.828 73.030299 
L 127.107 73.257448 
L 127.386 72.972125 
L 127.665 73.168137 
L 128.502 73.015596 
L 128.781 73.086794 
L 129.06 72.974704 
L 129.339 73.209777 
L 129.618 73.114979 
L 129.897 73.181538 
L 130.176 73.10922 
L 130.455 72.880532 
L 131.013 72.840043 
L 131.85 73.126365 
L 132.129 73.074235 
L 132.408 72.870251 
L 132.687 73.020911 
L 132.966 72.954757 
L 133.245 73.080691 
L 133.803 72.831788 
L 134.361 73.164477 
L 134.919 73.173995 
L 135.756 73.270658 
L 136.035 73.200476 
L 136.872 73.897798 
L 137.151 73.956815 
L 137.43 74.161938 
L 137.709 74.710383 
L 137.988 75.50483 
L 138.267 75.655921 
L 139.662 73.704788 
L 139.941 73.618266 
L 140.499 72.341517 
L 140.778 71.882 
L 141.057 71.666872 
L 141.336 71.627007 
L 141.894 70.921006 
L 142.173 70.957061 
L 142.731 70.721825 
L 143.847 70.566137 
L 144.126 70.752143 
L 144.405 70.531969 
L 144.684 70.512406 
L 144.963 70.608056 
L 145.242 70.345898 
L 145.521 70.64819 
L 145.8 70.720142 
L 146.358 70.363803 
L 146.637 70.57993 
L 148.032 70.532199 
L 148.311 70.6728 
L 148.59 70.582389 
L 148.869 70.709277 
L 149.148 70.571476 
L 149.427 70.577518 
L 149.706 70.923135 
L 150.264 73.718525 
L 150.543 74.931992 
L 150.822 75.557358 
L 151.101 75.844453 
L 151.38 75.774533 
L 152.217 74.639362 
L 153.054 73.908629 
L 153.891 73.311534 
L 154.17 73.208038 
L 154.449 73.280229 
L 154.728 72.868419 
L 155.007 73.434708 
L 155.286 73.135851 
L 155.565 73.173999 
L 155.844 72.976573 
L 156.96 73.052022 
L 157.239 72.968224 
L 157.518 72.709769 
L 157.797 72.840183 
L 158.076 72.833773 
L 158.355 72.677399 
L 158.634 72.692916 
L 158.913 72.575789 
L 159.192 72.601909 
L 159.471 72.76104 
L 159.75 72.432898 
L 160.029 72.586458 
L 160.308 72.571329 
L 160.587 72.74934 
L 161.145 72.417918 
L 161.424 72.598545 
L 161.703 72.515236 
L 162.54 72.603143 
L 162.819 72.535432 
L 163.098 72.598791 
L 163.377 72.437103 
L 163.656 72.574746 
L 163.935 72.425844 
L 165.051 72.416394 
L 165.33 72.215062 
L 165.609 72.329173 
L 165.888 72.115737 
L 166.167 72.503955 
L 166.446 72.3217 
L 166.725 72.420891 
L 167.004 72.341309 
L 167.841 72.676339 
L 168.12 72.376365 
L 168.957 72.443516 
L 169.236 72.672142 
L 169.515 72.441652 
L 169.794 72.668975 
L 171.189 72.871551 
L 171.468 72.761778 
L 172.026 72.996599 
L 172.305 72.841273 
L 173.7 72.849452 
L 173.979 73.154492 
L 174.537 72.645175 
L 174.816 72.877629 
L 175.095 72.921528 
L 175.374 72.613977 
L 175.653 72.954903 
L 175.932 72.740816 
L 176.211 73.043076 
L 176.49 72.758955 
L 176.769 72.903489 
L 177.048 72.779647 
L 177.327 73.085979 
L 177.606 72.84965 
L 178.164 72.9715 
L 178.722 73.053595 
L 179.001 72.757884 
L 179.28 72.997538 
L 179.559 72.775256 
L 179.838 72.945239 
L 181.512 73.15607 
L 181.791 73.314213 
L 182.349 73.140461 
L 182.628 73.129167 
L 183.186 73.365588 
L 183.465 73.431514 
L 183.744 73.273836 
L 184.581 73.640899 
L 184.86 73.277473 
L 185.139 73.435075 
L 185.976 73.591917 
L 186.255 73.74343 
L 186.534 73.502101 
L 187.092 73.876833 
L 187.65 73.936107 
L 187.929 73.753904 
L 188.487 74.15768 
L 188.766 74.014574 
L 189.045 74.398939 
L 189.324 74.080038 
L 189.603 74.387521 
L 189.882 74.204362 
L 190.161 74.223139 
L 190.719 74.485545 
L 191.277 74.469443 
L 191.556 74.698797 
L 192.114 76.425219 
L 192.393 76.421356 
L 192.951 76.187797 
L 193.23 75.452616 
L 193.788 74.834183 
L 194.067 73.84215 
L 194.904 71.976027 
L 195.183 72.047347 
L 195.462 71.371471 
L 195.741 71.327365 
L 196.02 70.632107 
L 196.299 70.539889 
L 196.578 70.02971 
L 196.857 69.826908 
L 197.415 69.97045 
L 197.973 69.744192 
L 198.252 69.669191 
L 198.531 69.991743 
L 199.089 70.246195 
L 199.368 70.000669 
L 199.647 69.997322 
L 199.926 70.137385 
L 200.205 70.003542 
L 200.763 70.147757 
L 201.042 70.304735 
L 201.321 69.811211 
L 202.158 70.180738 
L 202.995 70.932532 
L 203.274 70.643848 
L 203.553 70.801771 
L 203.832 70.596257 
L 204.111 70.828622 
L 204.39 70.85711 
L 204.669 70.179116 
L 204.948 70.661148 
L 205.227 70.734961 
L 205.506 69.405196 
L 205.785 72.159127 
L 206.064 73.358634 
L 206.622 71.981194 
L 206.901 73.892559 
L 207.18 74.06423 
L 207.459 73.101785 
L 207.738 71.392636 
L 208.296 72.78626 
L 208.854 70.222441 
L 209.412 72.336165 
L 210.249 70.848455 
L 210.528 72.412472 
L 210.807 71.574109 
L 211.086 71.539034 
L 211.923 71.892507 
L 212.202 72.199796 
L 212.481 71.996398 
L 213.039 72.475672 
L 213.597 72.063103 
L 214.434 72.741457 
L 214.713 72.614767 
L 214.992 72.706616 
L 215.271 72.481936 
L 215.55 72.906019 
L 215.829 72.772706 
L 216.108 72.810985 
L 216.387 72.293753 
L 216.666 73.088864 
L 216.945 73.177379 
L 217.224 72.956772 
L 217.503 73.018551 
L 217.782 72.896091 
L 218.061 73.149208 
L 218.34 73.035152 
L 219.177 73.153424 
L 219.735 73.112737 
L 221.409 73.141574 
L 221.688 73.02584 
L 221.967 73.182812 
L 222.246 73.149585 
L 222.525 72.847761 
L 223.083 73.141821 
L 223.362 73.039614 
L 223.92 73.026347 
L 224.478 72.867071 
L 224.757 72.687248 
L 225.315 72.9491 
L 225.594 72.962092 
L 225.873 72.767543 
L 226.989 73.026543 
L 227.268 72.933132 
L 227.547 73.069023 
L 227.826 72.680406 
L 228.105 72.832512 
L 228.384 72.617604 
L 228.663 72.709808 
L 229.221 72.596799 
L 229.779 72.890407 
L 230.058 72.819754 
L 230.337 72.931331 
L 230.616 72.732084 
L 230.895 72.928689 
L 231.174 72.655993 
L 231.453 72.899778 
L 232.29 72.642707 
L 232.848 72.936402 
L 233.127 72.851337 
L 233.406 73.071926 
L 233.685 73.113974 
L 233.964 72.98963 
L 234.243 73.464002 
L 234.522 73.166038 
L 234.801 73.261387 
L 235.08 73.545483 
L 235.917 73.548 
L 236.196 73.699178 
L 236.475 73.557398 
L 237.033 74.028829 
L 237.312 74.216649 
L 237.591 74.098825 
L 237.87 74.24736 
L 238.428 74.273921 
L 238.707 74.445414 
L 238.986 74.369387 
L 239.265 74.751419 
L 239.544 74.694452 
L 239.823 74.882624 
L 240.102 74.805166 
L 240.381 75.101537 
L 240.66 75.050178 
L 240.939 75.490922 
L 241.218 75.200688 
L 241.497 75.888912 
L 241.776 75.777315 
L 242.055 76.080654 
L 242.334 75.886014 
L 242.613 76.189299 
L 242.892 76.126599 
L 243.729 77.291622 
L 244.008 77.042488 
L 244.287 77.351679 
L 244.566 77.171021 
L 244.845 77.99239 
L 245.124 77.812054 
L 245.403 78.272841 
L 245.682 77.39887 
L 245.961 79.42383 
L 246.24 79.53994 
L 246.519 77.232262 
L 247.077 81.061727 
L 247.356 78.266514 
L 247.635 79.806425 
L 247.914 79.877476 
L 248.193 82.856651 
L 248.472 82.718113 
L 248.751 83.357373 
L 249.03 83.141746 
L 249.309 84.278552 
L 249.867 81.40204 
L 250.146 82.281818 
L 250.425 82.6212 
L 250.704 78.337434 
L 250.983 79.629572 
L 251.262 79.986012 
L 251.541 76.666128 
L 251.82 76.032239 
L 252.099 77.348652 
L 252.378 75.930846 
L 252.657 73.369582 
L 252.936 75.784768 
L 253.494 72.244812 
L 253.773 73.228445 
L 254.052 71.603455 
L 254.331 70.729926 
L 254.61 71.351565 
L 254.889 70.543308 
L 255.168 69.18733 
L 255.447 68.749666 
L 255.726 72.012877 
L 256.005 68.233272 
L 256.284 68.218003 
L 256.563 69.682265 
L 256.842 69.426763 
L 257.121 66.747349 
L 257.4 68.056039 
L 257.679 68.356174 
L 257.958 66.9487 
L 258.237 66.494084 
L 258.516 67.743563 
L 258.795 65.938965 
L 259.074 65.313382 
L 259.353 67.462263 
L 259.632 66.843376 
L 259.911 63.192101 
L 260.19 66.241011 
L 260.469 66.042869 
L 260.748 63.75428 
L 261.306 65.445094 
L 261.585 63.876625 
L 261.864 63.395598 
L 262.143 64.582271 
L 262.422 64.718244 
L 262.701 63.243543 
L 262.98 64.126363 
L 263.259 65.661999 
L 263.817 66.390965 
L 264.096 67.206444 
L 264.375 67.104012 
L 264.654 67.260304 
L 264.933 66.989461 
L 265.212 67.163161 
L 265.491 67.131826 
L 265.77 66.899613 
L 266.049 66.222645 
L 266.328 65.943736 
L 266.886 65.76754 
L 268.002 66.871184 
L 268.281 66.669405 
L 269.118 67.876292 
L 269.676 68.29864 
L 269.955 68.285106 
L 270.234 68.730633 
L 270.513 68.799972 
L 270.792 69.206542 
L 271.629 69.694093 
L 272.466 70.622995 
L 272.745 70.607623 
L 273.024 71.199057 
L 273.303 71.278058 
L 273.582 71.61739 
L 273.861 71.615614 
L 274.698 72.350257 
L 274.977 72.35644 
L 275.256 72.608029 
L 275.535 72.48174 
L 275.814 72.878118 
L 276.093 72.75047 
L 276.372 72.847619 
L 276.93 73.356358 
L 277.209 73.420863 
L 277.488 73.325289 
L 277.767 73.558894 
L 279.162 73.833882 
L 279.72 74.106092 
L 280.557 73.984046 
L 280.836 74.184496 
L 281.115 73.970116 
L 281.673 74.02713 
L 281.952 74.15937 
L 282.51 74.05997 
L 282.789 74.109852 
L 283.068 74.290102 
L 283.347 74.006463 
L 283.626 74.241355 
L 284.184 74.312476 
L 285.3 74.261794 
L 285.579 73.989085 
L 285.858 74.231927 
L 286.137 74.090736 
L 286.695 74.148469 
L 286.974 74.28817 
L 287.253 74.15938 
L 287.532 74.416781 
L 288.09 74.49114 
L 288.369 74.208159 
L 288.648 74.204031 
L 288.927 74.352819 
L 289.485 74.220562 
L 289.764 74.355362 
L 290.043 74.342214 
L 290.601 73.021316 
L 290.88 72.928296 
L 291.159 72.974061 
L 291.438 72.794532 
L 291.996 72.804638 
L 292.275 72.513931 
L 293.67 72.622349 
L 293.949 72.387231 
L 294.507 74.301363 
L 295.065 74.066926 
L 295.344 73.574771 
L 295.902 73.289298 
L 296.181 73.548287 
L 296.46 73.425944 
L 296.739 73.159033 
L 297.576 72.770077 
L 297.855 73.031125 
L 298.413 72.965471 
L 298.692 72.805531 
L 299.529 72.72 
L 299.808 72.475294 
L 300.087 72.857356 
L 300.645 72.120074 
L 300.924 70.254996 
L 301.203 72.861823 
L 301.482 74.22794 
L 301.761 72.834873 
L 302.04 73.592952 
L 302.319 73.164779 
L 302.598 73.830076 
L 302.877 73.320814 
L 303.156 73.502729 
L 303.435 73.1972 
L 303.714 73.24973 
L 303.993 73.078571 
L 304.551 73.514464 
L 304.83 73 
L 305.109 73.188036 
L 305.388 72.874613 
L 305.946 73.26131 
L 306.225 73.251145 
L 306.504 72.721127 
L 306.783 73.080088 
L 307.062 72.931373 
L 307.341 73.068313 
L 307.62 72.983237 
L 307.899 73.815697 
L 308.178 74.161786 
L 308.736 74.329306 
L 309.015 74.369458 
L 309.294 74.178617 
L 309.852 74.221065 
L 310.41 73.509783 
L 310.689 73.650982 
L 310.968 74.012164 
L 311.247 73.408091 
L 311.526 73.642178 
L 311.805 73.383003 
L 312.084 73.357787 
L 312.642 73.756869 
L 312.921 73.560755 
L 313.2 73.705996 
L 313.758 73.507619 
L 314.037 73.541324 
L 314.595 73.368667 
L 314.874 73.70518 
L 315.153 74.415231 
L 315.432 72.184774 
L 315.711 71.78045 
L 315.99 72.413978 
L 316.269 71.019629 
L 316.548 65.454184 
L 317.385 79.07605 
L 317.664 79.178895 
L 317.943 77.021181 
L 318.222 73.439158 
L 319.059 68.131566 
L 319.338 67.365482 
L 319.896 66.577974 
L 320.175 66.697047 
L 320.454 66.002418 
L 320.733 65.744487 
L 321.012 64.137189 
L 321.57 62.591765 
L 321.849 62.665465 
L 322.128 65.945323 
L 322.965 78.140013 
L 323.244 79.667744 
L 323.523 78.545924 
L 324.36 70.443869 
L 325.197 68.197096 
L 325.476 67.774694 
L 325.755 66.743209 
L 326.034 66.348728 
L 326.313 65.446367 
L 326.592 64.994151 
L 326.871 64.90473 
L 327.15 64.572021 
L 327.987 62.881752 
L 328.266 61.029241 
L 328.545 62.007333 
L 328.824 60.658849 
L 329.103 61.422805 
L 329.661 67.965882 
L 329.94 74.073255 
L 330.777 82.281511 
L 331.056 82.04782 
L 331.893 73.840062 
L 332.172 73.739421 
L 332.451 73.901109 
L 333.009 71.864996 
L 333.288 70.854986 
L 333.567 70.652322 
L 334.404 68.945948 
L 335.241 66.781211 
L 335.52 67.230226 
L 335.799 80.717317 
L 336.078 82.737199 
L 336.357 82.258903 
L 336.636 82.015029 
L 337.194 81.248591 
L 337.752 80.493099 
L 338.589 79.854213 
L 338.868 79.589721 
L 339.426 78.885063 
L 339.984 78.246614 
L 340.263 78.144106 
L 341.1 77.101677 
L 342.216 76.077164 
L 342.495 76.104535 
L 343.332 75.31838 
L 346.68 73.636428 
L 346.959 73.688979 
L 347.238 73.412115 
L 348.075 73.234572 
L 348.633 72.93461 
L 348.912 73.055358 
L 349.191 72.773727 
L 349.749 72.633624 
L 350.586 72.407354 
L 350.865 72.501509 
L 351.144 72.388015 
L 351.423 72.111651 
L 351.702 72.188818 
L 351.981 71.971081 
L 352.26 72.197271 
L 352.818 72.127599 
L 353.376 72.046523 
L 353.934 72.322097 
L 354.213 72.897402 
L 354.771 74.77483 
L 355.05 74.79362 
L 355.608 74.073654 
L 355.887 73.351691 
L 356.166 73.088102 
L 356.445 72.600204 
L 357.003 72.239932 
L 357.561 72.010347 
L 357.84 71.938934 
L 358.119 71.641307 
L 358.398 71.586793 
L 358.677 71.652206 
L 358.956 71.839142 
L 359.235 71.64579 
L 361.188 71.365564 
L 361.467 71.651619 
L 362.025 71.601168 
L 362.583 71.730361 
L 362.862 71.756638 
L 363.141 71.943209 
L 363.42 71.806914 
L 364.257 72.245922 
L 364.815 72.180147 
L 365.094 72.134568 
L 365.931 72.468161 
L 366.21 72.38272 
L 366.489 72.554918 
L 366.768 72.438758 
L 367.047 72.591985 
L 367.326 72.471017 
L 367.884 72.527371 
L 368.163 72.390898 
L 368.721 72.618636 
L 369.837 72.783895 
L 370.674 72.519426 
L 370.953 72.665959 
L 371.511 72.60577 
L 371.79 72.840394 
L 372.627 72.659336 
L 372.906 72.707364 
L 373.464 72.515194 
L 375.138 72.445834 
L 375.417 72.333541 
L 376.254 72.489932 
L 377.091 72.226289 
L 377.649 72.265149 
L 378.486 72.534529 
L 379.602 72.504756 
L 380.439 72.730043 
L 380.718 73.111268 
L 381.555 76.311377 
L 381.834 76.278515 
L 382.113 75.9476 
L 382.95 74.040567 
L 383.508 73.379508 
L 383.787 73.356634 
L 384.624 72.450995 
L 384.903 72.567924 
L 385.182 72.459623 
L 385.461 72.629533 
L 386.298 72.316367 
L 386.856 72.416298 
L 387.135 72.348875 
L 388.251 73.008691 
L 388.809 72.855657 
L 389.088 72.840947 
L 389.367 72.967877 
L 389.646 72.947569 
L 390.204 72.675391 
L 390.483 72.926402 
L 390.762 72.830231 
L 391.041 72.896044 
L 391.32 72.236439 
L 391.599 72.00836 
L 391.878 72.10535 
L 392.436 75.457462 
L 392.715 76.221441 
L 392.994 76.175445 
L 394.11 73.309307 
L 394.668 72.720901 
L 395.226 72.07881 
L 395.505 72.153797 
L 395.784 71.740181 
L 396.063 72.004392 
L 396.342 71.999834 
L 396.621 72.156527 
L 396.9 72.128964 
L 397.179 71.896013 
L 398.016 71.931581 
L 398.295 72.035516 
L 399.132 72.049399 
L 400.527 71.978321 
L 401.643 72.023412 
L 401.922 71.930616 
L 402.759 72.209499 
L 403.038 71.948653 
L 403.875 72.126055 
L 404.433 72.351962 
L 404.712 72.305128 
L 404.991 72.418863 
L 405.27 72.400954 
L 405.549 72.230699 
L 405.828 72.246535 
L 406.107 72.421407 
L 406.386 72.199324 
L 406.665 72.421659 
L 406.944 72.148385 
L 407.223 72.36634 
L 407.502 72.417495 
L 407.781 72.277747 
L 408.339 72.203365 
L 408.618 72.122757 
L 408.897 72.41642 
L 409.176 72.168714 
L 410.292 72.396063 
L 410.571 72.312444 
L 410.85 72.436474 
L 411.129 72.318949 
L 411.408 72.364955 
L 411.687 72.210313 
L 412.245 72.49033 
L 412.524 72.434634 
L 412.803 72.519108 
L 413.082 72.032064 
L 413.64 72.510125 
L 414.198 72.487978 
L 414.477 72.644654 
L 414.756 72.518146 
L 415.314 72.646283 
L 415.593 72.387054 
L 416.43 72.327288 
L 417.546 72.567737 
L 418.104 72.229384 
L 418.662 72.493505 
L 419.22 72.388207 
L 419.499 72.610968 
L 419.778 72.466785 
L 420.057 72.648022 
L 420.615 72.641291 
L 420.894 72.462169 
L 422.289 72.652867 
L 422.847 72.525371 
L 423.405 72.653216 
L 423.684 72.514195 
L 423.963 72.669716 
L 424.242 72.485666 
L 424.521 72.689367 
L 424.8 72.486149 
L 425.079 72.874255 
L 425.358 73.707985 
L 425.637 75.358072 
L 425.916 75.907181 
L 426.474 75.188501 
L 426.753 74.636152 
L 427.032 74.335654 
L 427.311 73.687866 
L 428.427 72.564664 
L 429.822 72.649015 
L 430.101 72.339039 
L 430.659 72.505366 
L 430.938 72.297681 
L 431.217 72.464541 
L 431.496 72.322989 
L 431.775 72.472103 
L 432.891 72.38479 
L 433.17 72.537805 
L 433.728 72.345325 
L 434.007 72.562877 
L 434.286 72.363794 
L 434.844 72.590073 
L 435.123 72.319241 
L 435.681 72.427318 
L 435.96 72.311294 
L 436.239 72.631105 
L 437.355 72.461593 
L 437.634 72.65153 
L 438.192 72.726815 
L 439.029 72.796323 
L 440.145 72.570047 
L 440.424 72.658946 
L 440.703 72.434371 
L 440.982 72.753753 
L 441.261 72.790499 
L 441.54 72.961371 
L 441.819 73.615801 
L 442.377 75.287348 
L 442.656 75.438296 
L 443.214 74.655123 
L 443.493 74.090695 
L 443.772 73.878301 
L 444.051 73.478468 
L 445.167 72.7625 
L 445.725 72.708596 
L 446.004 72.706092 
L 446.283 72.503836 
L 447.12 72.862471 
L 447.399 73.228897 
L 447.957 72.978063 
L 448.236 72.714874 
L 448.515 73.011244 
L 449.073 72.634632 
L 450.189 72.886916 
L 450.747 72.91417 
L 451.026 72.979215 
L 451.305 72.812452 
L 451.584 72.978918 
L 451.863 72.820098 
L 452.142 72.95554 
L 452.421 72.821299 
L 452.979 72.856584 
L 453.258 72.445679 
L 453.537 72.743958 
L 453.816 72.65912 
L 454.374 72.790534 
L 454.932 72.542796 
L 455.211 72.766502 
L 455.769 72.627351 
L 456.606 71.676948 
L 457.164 71.243901 
L 457.443 71.132524 
L 458.001 71.681704 
L 459.396 71.679066 
L 459.675 71.354236 
L 459.954 71.501396 
L 460.233 71.432944 
L 460.512 71.480514 
L 460.791 71.69295 
L 461.07 71.497322 
L 461.349 71.766185 
L 461.628 71.697251 
L 461.907 71.830061 
L 462.186 71.714188 
L 462.744 71.930797 
L 463.302 71.858641 
L 463.581 71.664559 
L 464.139 71.727514 
L 464.418 72.000348 
L 464.697 71.810196 
L 464.976 72.077027 
L 465.813 72.204829 
L 466.092 72.16461 
L 466.65 72.406631 
L 467.208 72.17637 
L 467.487 72.361494 
L 470.277 72.641563 
L 470.556 72.45963 
L 470.835 72.546429 
L 471.951 72.480668 
L 472.23 72.599749 
L 472.509 72.422047 
L 472.788 72.564711 
L 473.067 72.570012 
L 473.346 73.685242 
L 473.904 76.86642 
L 474.183 77.336864 
L 474.462 77.317734 
L 474.741 77.013918 
L 475.299 75.747164 
L 476.136 74.030817 
L 476.694 73.75293 
L 477.252 73.237204 
L 478.089 73.086745 
L 478.368 72.715859 
L 478.647 72.57609 
L 478.926 72.780343 
L 479.205 72.470664 
L 479.763 72.701592 
L 480.042 72.470959 
L 481.716 72.249635 
L 481.995 72.533833 
L 482.274 72.493561 
L 482.553 72.607217 
L 482.832 72.333257 
L 483.39 72.409074 
L 483.669 72.278369 
L 483.948 72.464773 
L 484.785 72.138534 
L 485.064 72.258662 
L 485.343 72.082061 
L 485.622 72.538565 
L 485.901 72.220602 
L 486.18 73.551893 
L 486.459 75.616932 
L 486.738 74.711192 
L 487.575 73.234105 
L 487.854 72.654214 
L 488.133 72.768931 
L 488.412 72.403877 
L 488.691 72.426349 
L 488.97 71.908694 
L 489.528 72.182162 
L 489.807 72.080221 
L 490.086 72.143936 
L 490.365 72.01879 
L 490.644 72.186546 
L 490.923 71.953844 
L 491.202 72.375989 
L 491.76 72.115191 
L 492.039 72.421657 
L 492.318 72.16645 
L 492.597 72.311369 
L 492.876 72.252804 
L 493.155 72.410925 
L 493.713 72.395224 
L 493.992 72.462815 
L 494.55 72.844692 
L 494.829 72.774916 
L 495.108 72.987947 
L 495.387 72.930657 
L 495.666 73.296973 
L 495.945 73.318258 
L 496.503 73.224613 
L 496.782 72.683868 
L 497.061 72.483956 
L 497.619 72.447099 
L 497.898 72.389038 
L 498.177 72.454662 
L 498.456 72.239008 
L 498.735 72.338018 
L 499.572 72.197166 
L 500.409 72.408199 
L 500.688 72.290464 
L 501.246 72.594888 
L 501.525 72.326483 
L 502.083 72.599349 
L 502.362 72.224134 
L 503.199 71.762566 
L 503.478 71.965282 
L 503.757 71.820341 
L 504.315 71.834415 
L 504.873 72.047388 
L 505.152 72.455812 
L 505.431 72.471125 
L 505.989 72.669332 
L 506.268 72.624673 
L 506.547 72.74644 
L 506.826 72.629611 
L 507.105 72.854783 
L 507.384 72.317536 
L 507.663 72.744476 
L 507.942 72.706874 
L 508.221 72.788801 
L 508.5 72.739679 
L 508.779 72.805607 
L 509.058 72.569497 
L 509.337 72.72 
L 509.895 72.758355 
L 510.174 72.892222 
L 510.453 72.653613 
L 510.732 72.682022 
L 511.011 72.431119 
L 511.29 72.76891 
L 511.569 72.659722 
L 511.848 73.143682 
L 512.127 72.809295 
L 512.406 72.881429 
L 512.685 72.455107 
L 512.964 72.666057 
L 513.243 72.712967 
L 513.522 72.54486 
L 513.801 72.710419 
L 514.359 72.634047 
L 514.638 72.700245 
L 515.754 72.073555 
L 516.033 72.046799 
L 516.312 72.377432 
L 516.591 72.387445 
L 516.87 72.659889 
L 517.149 72.743721 
L 517.428 72.666238 
L 517.707 72.463267 
L 517.986 72.527342 
L 518.265 72.302329 
L 519.66 71.948419 
L 520.218 72.403437 
L 520.497 72.334844 
L 521.334 73.003338 
L 521.613 73.067381 
L 522.171 72.912084 
L 522.729 73.078078 
L 523.008 73.146784 
L 523.287 72.844211 
L 523.845 73.301333 
L 524.124 72.798918 
L 524.403 72.941997 
L 524.682 72.827442 
L 524.961 72.853618 
L 525.24 72.765788 
L 525.798 73.180097 
L 526.356 73.247671 
L 526.914 72.369544 
L 527.193 72.090203 
L 527.751 73.4196 
L 528.03 74.927414 
L 528.309 75.74856 
L 528.588 75.564023 
L 529.146 74.62797 
L 529.425 73.453539 
L 529.704 73.256754 
L 530.262 73.175716 
L 530.541 72.19936 
L 530.82 72.410089 
L 531.099 72.915985 
L 531.378 72.736539 
L 531.657 72.851006 
L 531.936 72.40559 
L 532.215 72.372242 
L 532.494 71.906569 
L 532.773 71.97065 
L 533.052 72.348013 
L 533.331 72.455239 
L 534.168 72.110687 
L 535.005 72.131377 
L 535.563 72.077724 
L 535.842 71.899146 
L 536.4 72.193172 
L 536.679 72.205192 
L 537.516 72.793789 
L 538.353 75.405636 
L 538.632 75.337377 
L 539.19 74.112215 
L 540.306 72.55585 
L 540.585 72.622487 
L 540.864 72.013906 
L 541.143 71.866477 
L 541.701 71.392425 
L 541.98 71.567751 
L 542.259 71.968405 
L 542.538 71.797134 
L 542.817 72.018457 
L 543.096 72.014328 
L 543.375 72.145204 
L 543.654 72.141561 
L 544.491 72.579933 
L 544.77 72.289271 
L 545.049 72.418464 
L 545.607 72.184856 
L 545.886 72.23078 
L 546.723 71.959362 
L 547.839 71.812618 
L 548.118 71.661771 
L 548.955 71.881434 
L 549.513 72.270617 
L 549.792 72.19662 
L 550.071 71.974908 
L 550.35 72.151169 
L 550.629 71.877054 
L 551.466 71.894217 
L 551.745 72.376546 
L 552.024 72.547025 
L 552.303 72.507215 
L 552.582 73.251431 
L 552.861 75.209954 
L 553.14 76.079716 
L 553.419 75.714653 
L 553.977 74.449814 
L 554.814 73.85543 
L 555.093 73.828151 
L 555.651 73.379791 
L 556.209 73.43936 
L 556.767 73.299031 
L 557.046 72.900077 
L 557.325 73.293959 
L 557.604 73.436044 
L 558.162 72.742097 
L 558.999 73.226148 
L 559.836 72.799758 
L 560.673 72.884738 
L 560.952 72.555806 
L 561.51 72.841803 
L 561.789 73.349674 
L 562.068 73.165984 
L 562.347 72.749875 
L 562.905 72.584929 
L 563.463 71.824673 
L 563.742 71.933895 
L 564.021 71.906459 
L 564.3 71.565599 
L 564.579 71.612646 
L 564.858 71.847544 
L 565.137 71.884942 
L 565.416 71.702667 
L 565.695 72.029877 
L 565.974 71.549055 
L 566.532 72.041456 
L 566.811 72.139073 
L 567.648 71.947173 
L 567.927 72.248965 
L 568.206 72.092522 
L 568.485 72.180843 
L 568.764 72.067944 
L 569.043 72.257675 
L 569.601 72.122337 
L 569.88 72.422496 
L 570.159 72.240626 
L 570.438 72.395295 
L 570.996 71.993367 
L 571.275 71.943018 
L 571.554 72.177176 
L 572.112 72.252487 
L 572.391 72.715291 
L 573.228 76.786044 
L 573.786 76.598534 
L 574.065 76.141319 
L 574.623 74.670715 
L 574.902 74.205013 
L 575.181 74.391108 
L 575.739 73.547672 
L 576.297 73.169389 
L 576.855 73.636714 
L 577.134 73.216801 
L 577.413 73.546799 
L 577.692 73.113819 
L 578.25 73.154868 
L 578.808 72.989817 
L 579.087 72.573266 
L 579.366 72.72 
L 579.645 72.72 
L 579.924 71.800134 
L 580.482 73.038514 
L 580.761 73.296093 
L 581.04 72.573868 
L 581.319 71.387649 
L 581.598 71.082921 
L 581.877 73.692445 
L 582.156 74.082443 
L 582.435 72.01016 
L 582.993 69.566718 
L 583.272 70.868154 
L 583.551 72.819357 
L 583.83 73.006132 
L 584.388 72.750647 
L 584.667 72.000138 
L 584.946 72.219414 
L 585.225 72.245302 
L 585.783 71.702024 
L 586.062 71.418624 
L 586.62 72.141288 
L 586.899 74.541326 
L 587.457 70.041696 
L 587.736 71.716292 
L 588.015 71.671539 
L 588.294 72.076786 
L 588.573 72.099035 
L 588.852 72.568084 
L 589.131 72.222272 
L 589.41 72.871839 
L 589.689 72.714446 
L 589.968 72.033549 
L 590.526 72.576235 
L 590.805 72.361214 
L 591.084 72.292236 
L 591.363 71.932545 
L 591.642 72.111338 
L 591.921 73.516274 
L 592.479 70.401931 
L 593.037 73.292585 
L 593.316 72.825028 
L 593.595 73.102136 
L 593.874 72.435886 
L 594.153 72.324854 
L 594.432 73.042203 
L 594.711 72.568089 
L 594.99 71.693456 
L 595.269 71.975021 
L 595.548 72.481889 
L 595.827 72.653901 
L 596.106 73.132866 
L 596.385 72.717732 
L 596.664 73.235155 
L 596.943 74.214464 
L 597.222 76.245645 
L 597.501 76.722691 
L 598.059 74.513375 
L 598.338 74.97525 
L 598.617 74.145417 
L 598.896 73.77683 
L 599.175 74.121832 
L 599.454 74.26708 
L 599.733 73.566003 
L 600.012 73.352145 
L 600.291 73.545858 
L 600.849 71.200494 
L 601.407 73.086448 
L 601.686 73.524902 
L 601.965 72.558978 
L 602.244 72.926647 
L 602.523 72.72082 
L 602.802 73.057222 
L 603.081 69.103689 
L 603.36 70.980414 
L 603.918 72.833466 
L 604.197 73.887363 
L 604.476 72.231453 
L 605.034 72.644624 
L 605.313 71.75214 
L 605.871 72.309744 
L 606.15 72.466594 
L 606.429 73.308364 
L 606.708 73.107392 
L 606.987 72.528699 
L 607.545 72.673699 
L 608.103 72.805586 
L 608.382 71.799314 
L 608.661 71.625586 
L 608.94 73.124281 
L 609.498 71.776626 
L 609.777 72.56176 
L 610.056 72.794219 
L 610.335 72.459169 
L 610.614 72.399137 
L 611.172 71.533382 
L 611.451 71.425474 
L 612.009 72.218791 
L 612.288 72.258266 
L 612.567 71.858768 
L 612.846 72.20435 
L 613.125 72.089077 
L 613.404 72.386824 
L 613.962 70.368951 
L 614.52 72.840633 
L 614.799 71.753643 
L 615.078 71.322804 
L 615.915 72.730717 
L 616.473 72.437059 
L 617.031 72.796987 
L 617.31 72.550115 
L 617.589 72.534818 
L 618.147 71.478942 
L 618.705 72.498982 
L 618.984 72.532092 
L 619.263 73.664946 
L 619.821 71.316311 
L 620.1 72.676493 
L 620.379 72.897582 
L 620.937 74.299371 
L 621.495 76.156472 
L 622.053 72.271722 
L 622.332 73.077937 
L 622.611 73.124632 
L 622.89 72.814685 
L 623.169 71.892556 
L 623.448 72.587881 
L 623.727 71.418191 
L 624.006 72.140785 
L 624.285 73.203163 
L 624.564 72.89535 
L 624.843 70.964003 
L 625.122 70.181146 
L 625.401 70.191033 
L 625.959 72.857397 
L 626.517 72.65288 
L 626.796 73.715787 
L 627.075 74.102353 
L 627.354 73.031547 
L 627.633 73.147383 
L 627.912 72.995415 
L 628.191 72.656505 
L 628.47 71.794846 
L 628.749 71.623533 
L 629.028 70.78544 
L 629.307 70.846539 
L 629.586 70.106799 
L 629.865 72.610224 
L 630.144 73.705292 
L 630.981 72.229973 
L 631.26 74.276433 
L 631.539 74.825307 
L 631.818 74.164615 
L 632.097 73.077949 
L 632.376 72.634168 
L 632.934 73.410018 
L 633.213 72.890985 
L 633.771 71.673226 
L 634.05 71.861945 
L 634.608 73.575959 
L 634.887 73.192911 
L 635.166 73.782671 
L 635.445 73.851039 
L 636.003 73.418857 
L 636.282 72.827562 
L 636.561 72.676351 
L 636.84 72.285169 
L 637.398 73.794896 
L 637.677 74.174751 
L 637.956 73.192377 
L 638.514 72.66371 
L 639.072 71.903925 
L 639.909 72.9449 
L 640.188 72.91322 
L 640.467 72.685666 
L 640.746 72.939479 
L 641.025 72.458738 
L 641.304 71.599302 
L 641.583 72.195674 
L 641.862 70.526861 
L 642.141 71.487577 
L 642.42 74.02742 
L 642.699 73.008597 
L 642.978 73.597322 
L 643.257 73.164237 
L 643.536 73.65499 
L 643.815 73.647753 
L 644.094 73.430695 
L 644.373 72.793592 
L 644.652 73.193912 
L 644.931 72.869309 
L 645.21 73.09538 
L 645.489 72.07916 
L 645.768 71.751528 
L 646.047 72.187145 
L 646.605 76.642808 
L 647.163 76.174545 
L 647.442 76.729601 
L 648 73.313271 
L 648.279 73.276286 
L 648.279 73.276286 
" clip-path="url(#p5022d1bb5c)" style="fill: none; stroke: #afeeee; stroke-linecap: square"/>
   </g>
   <g id="patch_3">
    <path d="M 90 128.16 
L 90 17.28 
" style="fill: none; stroke: #000000; stroke-width: 0.8; stroke-linejoin: miter; stroke-linecap: square"/>
   </g>
   <g id="patch_4">
    <path d="M 648 128.16 
L 648 17.28 
" style="fill: none; stroke: #000000; stroke-width: 0.8; stroke-linejoin: miter; stroke-linecap: square"/>
   </g>
   <g id="patch_5">
    <path d="M 90 128.16 
L 648 128.16 
" style="fill: none; stroke: #000000; stroke-width: 0.8; stroke-linejoin: miter; stroke-linecap: square"/>
   </g>
   <g id="patch_6">
    <path d="M 90 17.28 
L 648 17.28 
" style="fill: none; stroke: #000000; stroke-width: 0.8; stroke-linejoin: miter; stroke-linecap: square"/>
   </g>
   <g id="legend_1">
    <g id="patch_7">
     <path d="M 327.032812 123.16 
L 410.967187 123.16 
Q 412.967187 123.16 412.967187 121.16 
L 412.967187 92.75375 
Q 412.967187 90.75375 410.967187 90.75375 
L 327.032812 90.75375 
Q 325.032812 90.75375 325.032812 92.75375 
L 325.032812 121.16 
Q 325.032812 123.16 327.032812 123.16 
z
" style="fill: #ffffff; opacity: 0.8; stroke: #cccccc; stroke-linejoin: miter"/>
    </g>
    <g id="line2d_17">
     <path d="M 329.032812 98.656875 
L 339.032812 98.656875 
L 349.032812 98.656875 
" style="fill: none; stroke: #808080; stroke-linecap: square"/>
    </g>
    <g id="text_16">
     <text style="font: 10px 'Segoe UI', sans-serif; text-anchor: start" x="357.032812" y="102.156875" transform="rotate(-0 357.032812 102.156875)">Brain Vision</text>
    </g>
    <g id="line2d_18">
     <path d="M 329.032812 113.36 
L 339.032812 113.36 
L 349.032812 113.36 
" style="fill: none; stroke: #afeeee; stroke-linecap: square"/>
    </g>
    <g id="text_17">
     <text style="font: 10px 'Segoe UI', sans-serif; text-anchor: start" x="357.032812" y="116.86" transform="rotate(-0 357.032812 116.86)">E-tattoo</text>
    </g>
   </g>
  </g>
 </g>
 <defs>
  <clipPath id="p5022d1bb5c">
   <rect x="90" y="17.28" width="558" height="110.88"/>
  </clipPath>
 </defs>
</svg>
